<?xml version="1.0" encoding="utf-8"?>
<!-- Generator: Adobe Illustrator 21.0.0, SVG Export Plug-In . SVG Version: 6.00 Build 0)  -->
<svg version="1.1" id="crsl-logo" xmlns="http://www.w3.org/2000/svg" xmlns:xlink="http://www.w3.org/1999/xlink" x="0px" y="0px" viewBox="0 0 189.6 126.2" xml:space="preserve">
<style type="text/css">
      	.st0{fill:#C4A006;}
              #crsl-logo .fan_left {
                transform-origin: 100% 100%;
              }
              @keyframes open-left {
                0% {
                   transform: rotate(88deg);
                }
                60% {
                   transform: rotate(15deg);
                }
                100% {
                   transform: rotate(0deg);
                }
              }
              #crsl-logo .fan_right {
                transform-origin: 0% 100%;
              }
              @keyframes open-right {
                0% {
                   transform: rotate(-88deg);
                }
                60% {
                   transform: rotate(-15deg);
                }
                100% {
                   transform: rotate(0deg);
                }
              }
              @keyframes inner-fan-right {
                0% {
                    clip-path: polygon(50% 0, 50% 0, 50% 0, 50% 0, 50% 0, 50% 100%, 50% 0, 50% 0, 50% 0, 50% 0);
                }
                27% {
                    clip-path: polygon(50% 0, 79% 16%, 79% 16%, 79% 16%, 79% 16%, 50% 100%, 21% 16%, 21% 16%, 21% 16%, 21% 16%);
                }
                45% {
                    clip-path: polygon(50% 0, 79% 16%, 93% 48%, 93% 48%, 93% 48%, 50% 100%, 7% 48%, 7% 48%, 7% 48%, 21% 16%);
                }
                60% {
                    clip-path: polygon(50% 0, 79% 16%, 93% 48%, 100% 89%, 100% 89%, 50% 100%, 0 89%, 0 89%, 7% 48%, 21% 16%);
                }
                100% {
                    clip-path: polygon(50% 0, 79% 16%, 93% 48%, 100% 89%, 100% 100%, 50% 100%,0 100%, 0 89%, 7% 48%, 21% 16%);
                }
              }
              #crsl-logo:hover .fan_left {
                animation: 5s open-left linear forwards;
              }
              #crsl-logo:hover .fan_right {
                animation: 5s open-right linear forwards;
              }
              #crsl-logo:hover .inner-fan {
                animation: 5s inner-fan-right linear forwards;
              }
</style>
<g class="logo">
       <path class="st0 fan_left" d="M7.8,72.7c-0.1,1.6,3.4,3.2,7.8,3.4l70.2,3.7c4.4,0.2,4.4,0,0-0.5l-70-8.5C11.5,70.1,7.9,71,7.8,72.7z"/>
       <path class="st0 fan_right" d="M179.7,72.9c-0.1-1.6-3.7-2.6-8.1-2l-70,8.3c-4.4,0.5-4.3,0.8,0,0.5l70.2-3.5 C176.3,76.1,179.8,74.6,179.7,72.9z"/>
       <g class="inner-fan">
             <path class="st0" d="M52.8,64.1c-5.1-0.5-19-1.7-20.7-1.8c-1.6-0.1-5.9,0.1-6,1.6c0,1.5,4.1,2,5.9,2.1c2.2,0.1,10,0.5,20.7,0.9 c1.4,0.1,3,0.1,4.8,0.2c0.1-0.9,0.2-1.7,0.3-2.6C55.6,64.4,53.8,64.2,52.8,64.1z"/>
             <path class="st0" d="M59.6,44.7c-4.2-3-15.8-10.7-17.2-11.6c-1.4-0.9-5.2-2.8-6-1.5c-0.7,1.3,2.6,3.7,4.1,4.7 c1.8,1.2,8.5,5.3,17.7,10.8c1.5,0.9,3.4,2.1,5.5,3.3c0.5-0.7,1-1.4,1.5-2C62.6,46.7,60.6,45.4,59.6,44.7z"/>
             <path class="st0" d="M75.1,31.6c-2.3-4.6-8.8-16.9-9.6-18.4c-0.8-1.4-3.3-5-4.6-4.1c-1.2,0.8,0.5,4.5,1.4,6.1 c1.1,1.9,5,8.7,10.4,17.9c1,1.7,2.2,3.7,3.5,6c0.7-0.4,1.5-0.8,2.2-1.1C76.9,35,75.7,32.7,75.1,31.6z"/>
             <path class="st0" d="M94.9,34.6c0.1-3.7,0.2-6.7,0.2-8c0.2-5.2,0.5-19.1,0.5-20.7c0-1.6-0.4-5.9-2-5.9c-1.5,0.1-1.8,4.2-1.8,6 c0,2.2,0.2,10,0.5,20.7c0.1,2.2,0.1,4.9,0.2,7.9C93.2,34.6,94,34.6,94.9,34.6z"/>
             <path class="st0" d="M155.1,62.3c-1.6,0.1-15.5,1.3-20.7,1.8c-1,0.1-2.9,0.3-5.4,0.5c0.1,0.8,0.3,1.7,0.3,2.6 c1.9-0.1,3.6-0.1,5.1-0.2c10.7-0.4,18.5-0.7,20.7-0.9c1.8-0.1,5.9-0.7,5.9-2.1C161.1,62.4,156.8,62.3,155.1,62.3z"/>
             <path class="st0" d="M129.2,47.2c9.1-5.5,15.8-9.6,17.7-10.8c1.5-1,4.8-3.5,4.1-4.7c-0.8-1.4-4.6,0.6-6,1.5 c-1.4,0.9-13,8.6-17.2,11.6c-1,0.7-3,2.1-5.7,3.9c0.5,0.7,1,1.3,1.5,2C125.7,49.3,127.6,48.1,129.2,47.2z"/>
             <path class="st0" d="M114.7,33.1c5.4-9.2,9.4-16,10.4-17.9c0.9-1.6,2.6-5.3,1.4-6.1c-1.3-0.8-3.8,2.7-4.6,4.1 c-0.8,1.4-7.3,13.7-9.6,18.4c-0.6,1.1-1.8,3.5-3.3,6.4c0.7,0.4,1.5,0.7,2.2,1.1C112.4,36.8,113.7,34.7,114.7,33.1z"/>
             <path d="M69.3,63c-6.4-1.3-24-4.8-25.2-5c-1.3-0.2-3.9-0.4-4,0.5c-0.2,0.8,1.8,1.5,3.2,1.8c1.3,0.3,4.7,0.8,17.3,2.7 c3.2,0.5,6.6,1,9.9,1.5c0.1-0.4,0.2-0.7,0.3-1C70.3,63.2,69.8,63.1,69.3,63z"/>
             <path d="M71.2,56.5c-5.8-2.8-22-10.8-23.1-11.3c-1.2-0.5-3.6-1.3-4-0.6c-0.3,0.7,1.4,1.9,2.6,2.5c1.2,0.6,4.3,1.9,16,7 c3.3,1.4,6.8,3,10.2,4.4c0.2-0.3,0.4-0.6,0.5-0.9C72.7,57.2,71.9,56.9,71.2,56.5z"/>
             <path d="M75.2,51.3c-4.9-4.2-18.6-15.9-19.6-16.6c-1-0.8-3.2-2.2-3.7-1.6c-0.5,0.6,0.9,2.2,1.9,3.1c1,0.9,3.7,3,13.8,10.7 c2.9,2.2,6,4.6,8.9,6.9c0.2-0.2,0.5-0.5,0.7-0.7C76.6,52.5,75.9,51.9,75.2,51.3z"/>
             <path d="M79.2,47.7c-3.7-5.3-14-20.1-14.7-21.1c-0.8-1-2.5-2.9-3.2-2.5c-0.6,0.4,0.3,2.3,1.1,3.5c0.7,1.1,2.9,3.8,10.6,13.9 c2.3,3,4.9,6.3,7.2,9.4c0.3-0.2,0.6-0.4,0.8-0.5C80.3,49.4,79.7,48.5,79.2,47.7z"/>
             <path d="M85,44.8c-2.3-6.1-8.5-23-8.9-24.1c-0.5-1.2-1.7-3.5-2.5-3.2c-0.7,0.3-0.3,2.3,0.2,3.7c0.4,1.3,1.8,4.4,6.8,16.1 c1.5,3.6,3.2,7.4,4.7,11c0.3-0.1,0.6-0.2,0.9-0.3C85.8,46.8,85.3,45.7,85,44.8z"/>
             <path d="M90.7,43c-0.8-6.4-2.8-24.3-3-25.6c-0.2-1.3-0.8-3.8-1.7-3.7c-0.8,0.1-0.8,2.2-0.7,3.6c0.1,1.3,0.7,4.7,2.8,17.3 c0.7,4,1.4,8.3,2.1,12.4c0.3,0,0.6-0.1,1-0.1C91,45.5,90.8,44.1,90.7,43z"/>
             <path d="M147.2,58.4c-0.2-0.8-2.7-0.7-4-0.5c-1.2,0.2-18.9,3.8-25.2,5c-0.5,0.1-1.1,0.2-1.7,0.3c0.1,0.3,0.2,0.7,0.3,1 c3.4-0.5,6.9-1,10.2-1.5c12.6-1.9,16-2.4,17.3-2.7C145.4,59.9,147.4,59.2,147.2,58.4z"/>
             <path d="M124.6,54.1c11.7-5.1,14.9-6.4,16-7c1.2-0.6,3-1.8,2.6-2.5c-0.4-0.8-2.8,0.1-4,0.6c-1.1,0.5-17.3,8.5-23.1,11.3 c-0.8,0.4-1.6,0.8-2.6,1.2c0.2,0.3,0.4,0.6,0.5,0.9C117.6,57.1,121.2,55.6,124.6,54.1z"/>
             <path d="M110.6,54c3-2.3,6.2-4.7,9.1-7c10.1-7.8,12.8-9.8,13.8-10.7c1-0.9,2.4-2.5,1.9-3.1c-0.5-0.6-2.7,0.7-3.7,1.6 c-1,0.8-14.7,12.5-19.6,16.6c-0.7,0.6-1.4,1.2-2.2,1.9C110.1,53.5,110.3,53.7,110.6,54z"/>
             <path d="M114.4,41.5c7.8-10.1,9.9-12.8,10.6-13.9c0.8-1.2,1.7-3.1,1.1-3.5c-0.7-0.5-2.4,1.4-3.2,2.5c-0.8,1-11,15.8-14.7,21.1 c-0.6,0.8-1.2,1.8-1.9,2.8c0.3,0.2,0.6,0.4,0.8,0.5C109.5,47.9,112,44.6,114.4,41.5z"/>
             <path d="M106.8,37.2c5-11.7,6.4-14.9,6.8-16.1c0.5-1.3,0.9-3.4,0.2-3.7c-0.8-0.3-2,2-2.5,3.2c-0.5,1.2-6.7,18.1-8.9,24.1 c-0.4,0.9-0.8,2.1-1.2,3.3c0.3,0.1,0.6,0.2,0.9,0.3C103.6,44.7,105.3,40.8,106.8,37.2z"/>
             <path d="M99.2,34.7c2.1-12.6,2.7-16,2.8-17.3c0.1-1.4,0.1-3.5-0.7-3.6c-0.8-0.1-1.5,2.4-1.7,3.7c-0.2,1.2-2.2,19.1-3,25.6 c-0.1,1.1-0.3,2.5-0.5,3.9c0.3,0,0.6,0.1,1,0.1C97.8,43,98.5,38.7,99.2,34.7z"/>
        </g>
</g>
<g class="cambeltown-rsl-text">
	<path d="M6.1,105.7c0.8,0,1.7-0.5,2.2-2.4c0.5-2.1,0.6-2.2,0.8-2.2c0.4,0,0.4,0,0.4,2.6c0,1.2-0.1,1.6-0.4,1.8 c-0.3,0.3-1.6,0.8-3.2,0.8c-3.7,0-6-3.7-6-7.8c0-4.8,2.7-7.7,6-7.7c1.2,0,2.2,0.2,2.9,0.7c0.3,0.2,0.3,0.2,0.3,1.9 c0,1.7,0,1.8-0.4,1.8c-0.2,0-0.4-0.2-0.8-1.6c-0.7-1.9-1.2-2.2-2-2.2c-2.1,0-3.3,2.1-3.3,6.9C2.5,103.4,4.2,105.7,6.1,105.7z"/>
        <path d="M14.2,100.8c-0.4,0-0.4,0.1-0.7,1.5c-0.5,2-0.6,2.3-0.6,2.5c0,0.3,0.2,0.5,0.7,0.7c0.4,0.1,1.1,0,1.1,0.4 c0,0.1-0.1,0.3-0.4,0.3c-0.2,0-1.1-0.1-1.7-0.1c-1.1,0-1.5,0.1-1.8,0.1c-0.2,0-0.2-0.1-0.2-0.2c0-0.4,0.3-0.2,0.8-0.4 c0.5-0.2,0.8-1.3,2.7-7.6c2.1-6.8,1.9-6.9,2.3-6.9c0.5,0,0.3,0.3,3.2,9.7c1.2,3.8,1.3,4.7,1.8,4.9c0.5,0.2,0.8,0.1,0.8,0.4 c0,0.2-0.1,0.3-0.5,0.3c-0.4,0-1.1-0.1-2-0.1c-1.3,0-2.1,0.1-2.4,0.1c-0.3,0-0.3-0.1-0.3-0.3c0-0.2,0.2-0.2,1-0.4 c0.3-0.1,0.4-0.4,0.4-0.5c0-0.2-0.1-0.5-0.6-2.2c-0.5-1.7-0.5-1.9-0.8-1.9H14.2z M16.9,100.1c0.2,0,0.2,0,0.2-0.1 c0-0.2-0.1-0.6-1-3.7c-0.4-1.2-0.4-1.3-0.4-1.3c-0.1,0-0.1,0.1-0.9,2.9c-0.5,1.8-0.6,2-0.6,2.1c0,0,0,0.1,0.3,0.1H16.9z"/>
	<path d="M34,91.7c0.2-0.5,0.2-0.6,0.6-0.6c0.2,0,0.7,0.1,1.7,0.1c0.5,0,1-0.1,1.4-0.1c0.2,0,0.3,0.1,0.4,0.3 c0,0.3-0.2,0.4-0.6,0.4c-0.9,0.1-1,0.2-1,0.7c0,5.2,0.2,7.8,0.2,11.7c0,0.8,0.1,1,0.8,1.2c0.5,0.2,0.8,0,0.8,0.4 c0,0.2-0.2,0.3-0.5,0.3c-0.5,0-0.9-0.1-2.2-0.1c-1.8,0-2.4,0.1-2.8,0.1c-0.2,0-0.3-0.1-0.3-0.3c0-0.3,0.2-0.3,0.8-0.4 c0.8-0.1,1-0.2,1-1.3c0-1.6-0.1-8.2-0.2-10.2h0C30.3,105,30.5,106,30,106c-0.5,0-0.2-0.4-4.1-12.1h0c-0.2,2.8-0.2,9-0.2,10 c0,1.2,0.3,1.4,1.2,1.5c0.6,0.1,0.7,0.2,0.7,0.4c0,0.2-0.1,0.3-0.3,0.3c-0.3,0-0.7-0.1-1.9-0.1c-1,0-1.5,0.1-1.9,0.1 c-0.3,0-0.4,0-0.4-0.2c0-0.2,0.2-0.3,1-0.4c0.5-0.1,0.6-0.4,0.6-1.5c0.2-5.3,0.4-10.4,0.4-11.4c0-0.6-0.1-0.7-1.3-0.8 c-0.2,0-0.3-0.1-0.3-0.4c0-0.2,0.2-0.3,0.4-0.3c0.5,0,0.7,0.1,1.6,0.1c0.9,0,1.3-0.1,1.5-0.1c0.5,0,0.6,0.2,0.9,1l3,8.9h0L34,91.7 z"/>
	<path d="M43.8,104.6c0,0.4,0.1,0.8,1,0.8c0.6,0,0.8,0.1,0.8,0.3c0,0.2-0.1,0.3-0.3,0.3c-0.4,0-0.7-0.1-2.4-0.1 c-1.9,0-2.1,0.1-2.6,0.1c-0.3,0-0.4-0.1-0.4-0.3c0-0.3,0.3-0.3,0.8-0.4c0.5,0,0.8-0.3,0.8-0.8V92.8c0-0.7-0.1-1-0.6-1 c-0.7-0.1-0.8-0.1-0.8-0.3c0-0.2,0.1-0.3,0.5-0.3c0.4,0,1,0.1,2.3,0.1c0.8,0,1.7-0.1,2.8-0.1c2.5,0,4.1,1.7,4.1,4.1 c0,2.3-1.5,4.2-3.9,4.2c-1.1,0-1.7-0.2-2.1-0.2c0,0-0.1,0.1-0.1,0.4V104.6z M43.8,98.3c0,0.3,0.3,0.6,1,0.6c1.4,0,2.5-1.6,2.5-3.7 c0-2.2-1.1-3.3-2.1-3.3c-1,0-1.3,0.3-1.3,0.9V98.3z"/>
	<path d="M53.2,92.3c0-0.3-0.1-0.5-0.5-0.5h-0.7c-0.2,0-0.3-0.1-0.3-0.3c0-0.2,0.2-0.4,0.6-0.4c1.9-0.2,3.2-0.3,4.6-0.3 c3.2,0,4.9,1.1,4.9,3.4c0,1.9-1.2,2.8-2.9,3.4v0c2.2,0.3,3.8,1.8,3.8,4c0,2.2-1.7,4.4-4.1,4.4c-1,0-1.9-0.1-3.5-0.1 c-1.4,0-2.3,0.1-2.9,0.1c-0.4,0-0.5-0.1-0.5-0.3c0-0.2,0.1-0.2,0.6-0.4c0.8-0.3,0.9-0.3,0.9-1V92.3z M55.5,96.5 c0,0.8,0.2,0.9,0.9,0.9c1.6,0,3-0.8,3-3.2c0-1.7-1-2.7-2.6-2.7c-1.1,0-1.3,0.4-1.3,1V96.5z M55.5,103.7c0,1.1,0.5,1.7,1.9,1.7 c1.2,0,2.7-0.9,2.7-3.8c0-2-1-3.5-3.3-3.5c-1.1,0-1.3,0.1-1.3,0.7V103.7z"/>
	<path d="M66.1,92.7c0-0.6-0.2-0.8-0.9-0.9c-0.4-0.1-0.7,0-0.7-0.4c0-0.3,0.2-0.3,0.7-0.3c0.2,0,0.8,0.1,3.7,0.1 c2.5,0,3.6-0.1,4.3-0.1c0.4,0,0.5,0.1,0.5,0.4v3c0,0.3-0.1,0.4-0.3,0.4c-0.4,0-0.2-0.1-0.8-1.3c-0.6-1.4-1.3-1.9-3.1-1.9 c-1.1,0-1.2,0.1-1.2,0.6v4.8c0,0.3,0,0.4,0.6,0.4c2,0,2,0,2.5-0.9c0.4-0.8,0.4-1.1,0.7-1.1c0.2,0,0.3,0.1,0.3,0.4 c0,0.5-0.1,1.3-0.1,2c0,0.9,0.1,1.5,0.1,2c0,0.4,0,0.7-0.3,0.7c-0.4,0-0.4-0.5-0.6-1.3c-0.3-1.1-0.4-1.2-2.1-1.2c-0.9,0-1,0-1,0.4 v4.5c0,1.7,0.3,2.2,1.9,2.2c1.6,0,2.3-0.7,2.9-2.3c0.5-1.2,0.4-1.3,0.7-1.3c0.2,0,0.3,0.1,0.3,0.5v3.3c0,0.3-0.1,0.4-0.6,0.4 c-0.6,0-1.8-0.1-4.2-0.1c-2.7,0-3.3,0.1-4.5,0.1c-0.4,0-0.5-0.1-0.5-0.3c0-0.3,0.1-0.3,0.4-0.4c1-0.2,1.2-0.4,1.2-1.1V92.7z"/>
	<path d="M80.1,104.1c0,0.9,0.5,1.4,1.3,1.3c1,0,1.8-0.6,2.4-1.8c0.6-1.4,0.5-1.7,0.8-1.7c0.2,0,0.2,0.1,0.2,0.6v3 c0,0.4-0.1,0.6-0.4,0.6c-0.7,0-1.8-0.1-4.5-0.1c-1.6,0-2.7,0.1-3.2,0.1c-0.3,0-0.4-0.1-0.4-0.3c0-0.2,0.1-0.3,0.4-0.3 c0.9-0.2,1.2-0.2,1.2-1.3V92.6c0-0.5-0.2-0.8-0.6-0.8c-0.7,0-0.9-0.1-0.9-0.4c0-0.2,0.2-0.3,0.4-0.3c0.4,0,0.9,0.1,2.3,0.1 c1.6,0,2.1-0.1,2.4-0.1c0.3,0,0.4,0.1,0.4,0.3c0,0.3-0.2,0.3-0.8,0.4c-0.8,0-1,0.3-1,0.9V104.1z"/>
        <path d="M90.4,104.1c0,0.9,0.5,1.4,1.3,1.3c1,0,1.8-0.6,2.4-1.8c0.6-1.4,0.5-1.7,0.8-1.7c0.2,0,0.2,0.1,0.2,0.6v3 c0,0.4-0.1,0.6-0.4,0.6c-0.7,0-1.8-0.1-4.5-0.1c-1.6,0-2.7,0.1-3.3,0.1c-0.3,0-0.4-0.1-0.4-0.3c0-0.2,0.1-0.3,0.4-0.3 c0.9-0.2,1.2-0.2,1.2-1.3V92.6c0-0.5-0.2-0.8-0.6-0.8c-0.7,0-0.9-0.1-0.9-0.4c0-0.2,0.2-0.3,0.4-0.3c0.4,0,0.9,0.1,2.3,0.1 c1.6,0,2.1-0.1,2.4-0.1c0.3,0,0.4,0.1,0.4,0.3c0,0.3-0.2,0.3-0.8,0.4c-0.8,0-1,0.3-1,0.9V104.1z"/>
	<path d="M103.3,91.2c1.1,0,0.8-0.9,1.4-0.9c0.2,0,0.3,0.1,0.3,0.4c0,0.4-0.1,0.8-0.3,4.2c0,0.2-0.1,0.4-0.2,0.4 c-0.3,0-0.2-0.2-0.8-1.8c-0.4-1.3-0.9-1.5-1.8-1.5c-0.5,0-0.6,0.1-0.6,0.4v11.9c0,0.7,0.1,1.1,0.9,1.2c0.9,0,1,0.1,1,0.4 c0,0.2-0.1,0.3-0.4,0.3c-0.4,0-0.9-0.1-2.4-0.1c-1.9,0-2.7,0.1-3,0.1c-0.2,0-0.4-0.1-0.4-0.3c0-0.2,0.1-0.3,0.7-0.4 c1.1-0.1,1.2-0.3,1.2-1.4V92.4c0-0.4-0.2-0.5-0.6-0.5c-0.9,0-1.4,0.4-2.2,1.8c-0.7,1.3-0.7,1.5-0.9,1.5c-0.1,0-0.2-0.1-0.2-0.2 c0-0.2,0.1-0.7,0.6-3.7c0.1-0.9,0.1-1,0.4-1c0.4,0,0.1,0.9,1,0.9H103.3z"/>
	<path d="M113,106.4c-3.6,0-5.9-4-5.9-7.7c0-3.7,2.3-7.7,5.9-7.7c3.6,0,5.9,4,5.9,7.7C118.9,102.4,116.7,106.4,113,106.4z M113,91.5c-2.3,0-3.3,4.2-3.3,7.1s1,7.1,3.3,7.1c2.3,0,3.3-4.2,3.3-7.1S115.4,91.5,113,91.5z"/>
	<path d="M126.5,92.5c-0.2-0.5-0.3-0.6-0.7-0.7c-0.4-0.1-0.5-0.1-0.5-0.4c0-0.2,0.2-0.3,0.5-0.3c0.3,0,0.8,0.1,1.9,0.1 c0.4,0,1.3-0.1,1.6-0.1c0.2,0,0.4,0.1,0.4,0.3c0,0.2-0.1,0.3-0.6,0.4c-0.2,0-0.3,0.2-0.3,0.4c0,0.2,0.2,0.9,1,3.3h0 c0.9-2.4,1.2-3,1.2-3.3c0-0.5-0.9-0.2-0.9-0.7c0-0.2,0.1-0.4,0.4-0.4c0.3,0,0.5,0.1,1.1,0.1c0.6,0,0.9-0.1,1.1-0.1 c0.2,0,0.3,0.1,0.3,0.3c0,0.3-0.2,0.3-0.5,0.4c-0.6,0.2-0.8,0.3-1.1,1.2l-1.1,3.1c-0.1,0.4-0.2,0.5-0.2,0.6c0,0.1,0.1,0.3,0.2,0.6 l1.4,4.1c0.1,0.4,0.2,0.4,0.3,0.4c0.1,0,0.1-0.2,1.3-4c1.5-4.9,1.6-5.1,1.6-5.6c0-0.3-0.2-0.4-0.6-0.5c-0.3-0.1-0.4,0-0.4-0.4 c0-0.2,0.1-0.3,0.3-0.3c0.3,0,0.6,0.1,1.2,0.1c0.4,0,0.7-0.1,1.1-0.1c0.2,0,0.3,0.1,0.3,0.3c0,0.2-0.1,0.3-0.3,0.4 c-0.6,0.2-0.6,0.3-0.9,1.3c-0.6,1.9-1.4,4.6-2.5,8.1l-1.4,4.5c-0.1,0.2-0.1,0.6-0.4,0.6c-0.3,0-0.4-0.4-0.4-0.6l-0.6-1.9 c-1.2-3.8-1.2-3.9-1.3-3.9c-0.1,0-0.1,0.1-0.2,0.5l-1.7,5.4c-0.1,0.2-0.1,0.6-0.4,0.6c-0.3,0-0.4-0.4-0.4-0.6 c-0.2-0.6-4.1-11.8-4.3-12.2c-0.5-1.4-0.4-1.4-1.1-1.7c-0.3-0.1-0.4-0.1-0.4-0.4c0-0.2,0.1-0.3,0.6-0.3c0.3,0,0.9,0.1,2,0.1 c0.6,0,1.3-0.1,1.6-0.1c0.2,0,0.4,0.1,0.4,0.3c0,0.2-0.2,0.3-0.4,0.4c-0.4,0.1-0.5,0.2-0.5,0.4c0,0.3,0.3,1.2,2.4,7.5 c0.6,1.8,0.8,2.3,0.9,2.3c0.1,0,0.2-0.1,1.3-3.4L126.5,92.5z"/>
	<path d="M147.8,105.8c0,0.4-0.2,0.5-0.4,0.5c-0.3,0-0.4-0.2-0.6-0.5l-6.2-11.2c-0.2-0.4-0.3-0.6-0.4-0.6s-0.1,0.1-0.1,0.5v9 c0,1.2,0.1,1.7,1.1,1.9c0.4,0.1,0.8,0.1,0.8,0.4c0,0.1,0,0.3-0.3,0.3c-0.6,0-1.2-0.1-2-0.1c-0.7,0-1,0.1-1.5,0.1 c-0.4,0-0.5,0-0.5-0.3c0-0.2,0.1-0.3,0.6-0.3c0.9-0.1,1.1-0.3,1.1-2.5V92.7c0-0.8-0.1-0.8-0.8-0.9c-0.5-0.1-0.7-0.2-0.7-0.4 c0-0.2,0.1-0.3,0.4-0.3c0.2,0,0.4,0.1,1.4,0.1c0.8,0,1-0.1,1.2-0.1c0.3,0,0.4,0.4,0.9,1.2l4.7,8.7c0.2,0.3,0.3,0.5,0.4,0.5 c0.1,0,0.1,0,0.1-0.5v-7.3c0-1.6-0.3-1.9-1-2c-0.4-0.1-0.7,0-0.7-0.3c0-0.3,0.2-0.3,0.5-0.3c0.3,0,0.6,0.1,1.6,0.1 c0.8,0,1-0.1,1.4-0.1c0.3,0,0.4,0.1,0.4,0.3c0,0.3-0.2,0.3-0.6,0.4c-0.6,0.1-0.8,0.5-0.8,1V105.8z"/>
	<path d="M161.4,104.1c0,0.7,0.2,1.2,0.9,1.3c0.9,0.2,1,0.3,1,0.4c0,0.2-0.1,0.3-0.3,0.3c-0.5,0-1.4-0.1-2.5-0.1 c-1.3,0-2,0.1-2.5,0.1c-0.2,0-0.4-0.1-0.4-0.3c0-0.2,0.1-0.3,0.5-0.4c0.8-0.1,1-0.5,1-1V92.9c0-0.8-0.2-1-0.8-1.1 c-0.5,0-0.7-0.1-0.7-0.3c0-0.2,0.2-0.4,0.4-0.4c0.7,0,1.3,0.1,2.4,0.1c1.2,0,2.1-0.1,3.5-0.1c2.6,0,4.1,1.6,4.1,3.9 c0,2.1-1.7,3.2-3.6,3.5v0c0.7,0.1,1,0.4,1.3,1.2c1.9,3.9,2.2,5.3,2.8,5.7c0.5,0.3,0.8,0.1,0.8,0.4c0,0.1-0.1,0.2-0.3,0.2 c-0.5,0-1.1-0.1-1.6-0.1c-0.6,0-0.8,0.1-1.2,0.1c-0.2,0-0.3-0.1-0.4-0.4l-2.9-6.3c-0.1-0.3-0.3-0.5-0.8-0.5 c-0.5,0-0.7,0.1-0.7,0.6V104.1z M161.4,97.6c0,0.5,0.1,0.6,0.8,0.6c2.1,0,3.2-0.9,3.2-3.2c0-1.7-1.1-3.2-2.5-3.2 c-1.2,0-1.5,0.3-1.5,1.2V97.6z"/>
	<path d="M178,94.6c0,0.3-0.1,0.5-0.4,0.5c-0.4,0-0.4-0.6-1.1-2.2c-0.4-1-0.9-1.5-2-1.5c-1.2,0-2,1-2,2.4c0,1.4,0.5,1.7,2.9,3.4 c1.8,1.3,3.3,2.5,3.3,4.7c0,2.3-1.7,4.5-5,4.5c-1.2,0-3.2-0.5-3.2-1.3c0-3.5,0.1-3.7,0.5-3.7c0.5,0,0.3,0.5,0.9,2.2 c0.6,1.4,1.4,2.2,2.6,2.2c1.4,0,2.4-1.1,2.4-2.6c0-4.2-6.3-3.7-6.3-8.5c0-1.9,1.6-3.8,4.1-3.8c1.7,0,2.9,0.3,3.1,0.6 c0.1,0.2,0.1,0.4,0.1,0.7V94.6z"/>
	<path d="M184.5,104.1c0,0.9,0.5,1.4,1.3,1.3c1,0,1.8-0.6,2.4-1.8c0.6-1.4,0.5-1.7,0.8-1.7c0.2,0,0.2,0.1,0.2,0.6v3 c0,0.4-0.1,0.6-0.4,0.6c-0.7,0-1.8-0.1-4.5-0.1c-1.6,0-2.7,0.1-3.2,0.1c-0.3,0-0.4-0.1-0.4-0.3c0-0.2,0.1-0.3,0.4-0.3 c0.9-0.2,1.2-0.2,1.2-1.3V92.6c0-0.5-0.2-0.8-0.6-0.8c-0.7,0-0.9-0.1-0.9-0.4c0-0.2,0.2-0.3,0.4-0.3c0.4,0,0.9,0.1,2.3,0.1 c1.6,0,2.1-0.1,2.5-0.1c0.3,0,0.4,0.1,0.4,0.3c0,0.3-0.2,0.3-0.8,0.4c-0.8,0-1,0.3-1,0.9V104.1z"/>
</g>
<g class="part-of-cabravale-diggers-text">
	<path d="M3.4,119.4c-0.1,0-0.3,0.1-0.3,0.1c0,0-0.1,0.2-0.1,0.4c0,0.2,0,1.6,0,2.8c0,1,0,1.7,0,2c0,0.7,0,0.9,0.7,1
		c0.2,0,0.3,0.1,0.3,0.2c0,0.1-0.2,0.2-0.3,0.2c-0.3,0-0.9-0.1-1.4-0.1c-0.3,0-0.9,0-1.2,0c-0.3,0-0.4-0.1-0.4-0.2
		c0-0.1,0.2-0.2,0.3-0.2c0.5-0.1,0.7-0.3,0.7-0.8c0-0.4,0.1-1.1,0.1-1.7c0-0.3,0-2.8,0-3.1c0-0.4-0.1-0.6-0.7-0.6
		c-0.1,0-0.3-0.1-0.3-0.2c0-0.1,0.1-0.2,0.2-0.2c0.1,0,0.3,0,0.4,0c0.7,0,1.6-0.1,2.1-0.1c1,0,1.8,0.2,2.2,0.6
		c0.5,0.5,0.6,1.1,0.6,1.5c0,0.9-0.4,1.4-0.7,1.6c-0.3,0.2-0.9,0.5-1.3,0.5c-0.1,0-0.4,0-0.6-0.1c-0.2-0.1-0.2-0.1-0.2-0.2
		c0,0,0.1-0.1,0.2-0.1c0.1,0,0.1,0,0.2,0c0.5,0,1.1-0.5,1.1-1.7C4.9,120.3,4.3,119.4,3.4,119.4z"/>
	<path d="M11.1,119.2c0.1,0.3,0.3,0.8,0.4,1.2c0.6,1.7,1.3,3.7,1.6,4.2c0.4,0.9,0.6,1,1,1.1c0.2,0.1,0.3,0.1,0.3,0.2
		c0,0.1-0.1,0.2-0.4,0.2c-0.3,0-1.1,0-1.4,0c-0.4,0-0.8,0-1.1,0c-0.2,0-0.3-0.1-0.3-0.2c0-0.1,0.1-0.1,0.3-0.2
		c0.4-0.1,0.5-0.3,0.4-0.5c0-0.3-0.3-0.9-0.5-1.6c0,0-0.1-0.2-0.3-0.2c-1.2,0-1.7,0-1.8,0c0,0-0.1,0.1-0.1,0.1
		c-0.3,0.9-0.5,1.4-0.5,1.6c0,0.2,0.1,0.4,0.5,0.5c0.2,0.1,0.3,0.1,0.3,0.2c0,0.1-0.2,0.1-0.3,0.1c-0.2,0-0.5,0-0.9,0
		c-0.4,0-0.9,0-1.1,0c-0.3,0-0.3-0.1-0.3-0.1c0-0.1,0-0.2,0.3-0.2c0.6-0.2,0.7-0.3,1-1c0.3-0.5,1.4-3.6,1.9-4.7c0,0,0.1-0.2,0.1-0.2
		c0,0,0-0.1,0-0.1c0.2-0.2,0.5-0.6,0.6-0.7c0.1-0.1,0.1-0.1,0.2-0.1S11,118.9,11.1,119.2z M11.1,122.9c-0.2-0.5-0.6-1.8-0.8-2.2
		c0-0.1-0.1-0.1-0.1,0c-0.2,0.5-0.7,1.9-0.8,2.2c0,0.1,0,0.1,0.1,0.1C9.9,123,10.7,122.9,11.1,122.9
		C11.1,122.9,11.1,122.9,11.1,122.9z"/>
	<path d="M20.7,122.2c0,0-0.3,0.2-0.4,0.2c-0.1,0,0,0.1,0,0.2c0.2,0.4,1.1,1.9,1.6,2.6c0.3,0.3,0.6,0.5,0.9,0.5
		c0.1,0,0.2,0.1,0.2,0.2c0,0.1-0.1,0.1-0.2,0.2c-0.2,0.1-0.6,0.1-0.7,0.1c-1,0-1.4-0.4-1.6-0.7c-0.3-0.4-0.9-1.3-1.3-2.1
		c-0.1-0.2-0.3-0.4-0.3-0.5c-0.1-0.1-0.3-0.1-0.5-0.1c0,0-0.1,0.1-0.1,0.1c0,0.2,0,1.7,0,2.2c0,0.5,0.1,0.6,0.6,0.7
		c0.2,0.1,0.3,0.1,0.3,0.2c0,0.1-0.2,0.2-0.3,0.2c-0.4,0-0.9-0.1-1.4-0.1c-0.4,0-0.9,0-1,0c-0.3,0-0.3-0.1-0.3-0.2
		c0-0.1,0.1-0.1,0.3-0.2c0.5-0.2,0.6-0.3,0.7-0.6c0.1-0.8,0.1-1.8,0.1-2.7c0-1.2,0-2.1-0.1-2.4c0-0.3-0.1-0.4-0.6-0.5
		c-0.2,0-0.3-0.1-0.3-0.2c0-0.1,0.1-0.2,0.3-0.2c0.3,0,0.6,0,0.8,0c0.4,0,1.3-0.1,1.9-0.1c0.5,0,1.4,0,1.9,0.5
		c0.3,0.3,0.6,0.8,0.6,1.3C21.5,121.4,21.2,121.8,20.7,122.2z M19.7,119.8c-0.3-0.3-0.6-0.4-0.9-0.4c0,0-0.3,0-0.4,0.1
		c-0.1,0-0.1,0.2-0.1,0.2c0,0.4-0.1,2.3,0,2.6c0,0.1,0.1,0.1,0.1,0.1c0.6,0,1.1-0.2,1.2-0.2c0.3-0.2,0.6-0.6,0.6-1.2
		C20.2,120.7,20.1,120.2,19.7,119.8z"/>
	<path d="M29.4,119.1c0.5,0,0.7-0.1,0.8-0.2c0.1-0.1,0.1-0.1,0.2-0.1c0.1,0,0.1,0.1,0.1,0.3c-0.1,0.3-0.2,0.9-0.2,1.3
		c0,0.1-0.1,0.3-0.2,0.3c-0.1,0-0.1-0.1-0.2-0.3c-0.1-0.6-0.3-0.7-0.8-0.7c-0.3,0-1.1,0-1.3,0.1c-0.1,0-0.1,0.1-0.1,0.1
		c0,0.5,0,1.3,0,2.3c0,1.3,0,2.4,0.1,3c0,0.3,0.1,0.6,0.9,0.7c0.2,0,0.3,0.2,0.3,0.2c0,0.1-0.2,0.1-0.3,0.1c-0.1,0-1.3,0-1.6,0
		c-0.3,0-1.2,0.1-1.4,0.1c-0.2,0-0.3,0-0.3-0.1c0-0.1,0.1-0.2,0.2-0.2c0.7-0.2,0.8-0.3,0.8-1.1c0-0.6,0.1-2.8,0.1-3.6
		c0-0.6,0-1,0-1.3c0-0.1-0.1-0.2-0.1-0.2c-0.2,0-1,0-1.2,0c-0.2,0-0.5,0.1-0.6,0.3c-0.1,0.1-0.2,0.3-0.4,0.6
		c-0.1,0.2-0.2,0.3-0.2,0.3c-0.1,0-0.2-0.1-0.2-0.2c0-0.2,0.2-0.9,0.2-1.5c0,0,0.1-0.2,0.2-0.2c0.1,0,0.1,0.1,0.2,0.2
		c0,0,0.2,0.2,0.4,0.2c0.2,0,1.7,0.1,2.4,0.1C27.6,119.1,29,119.1,29.4,119.1z"/>
	<path d="M43,122.5c0,1.4-0.6,2.4-1.4,3c-0.6,0.5-1.5,0.8-2.4,0.8c-1.1,0-2.1-0.4-2.8-1.2c-0.6-0.6-0.9-1.5-0.9-2.5
		c0-1.3,0.6-2.2,1.4-2.8c0.5-0.4,1.4-0.8,2.3-0.8C41.6,118.9,43,120.7,43,122.5z M37.7,119.9c-0.4,0.4-0.8,1.1-0.8,2.4
		c0,1.7,1,3.5,2.6,3.5c0.6,0,1-0.3,1.1-0.4c0.5-0.5,0.8-1.4,0.8-2.6c0-0.9-0.3-2.2-1.1-2.9c-0.4-0.3-1-0.6-1.4-0.6
		C38.4,119.3,38,119.6,37.7,119.9z"/>
	<path d="M48.2,119.1c1.3,0,1.7,0,1.8,0c0.1,0,0.1,0.1,0.1,0.1c0,0.3,0,0.8,0,1.2c0,0.1-0.1,0.3-0.2,0.3c-0.1,0-0.2-0.1-0.3-0.4
		c-0.1-0.4-0.3-0.7-0.7-0.8c-0.3,0-1.3,0-1.5,0c-0.1,0-0.2,0.1-0.2,0.1c-0.1,0.3-0.1,1.6-0.1,2.3c0,0.2,0,0.4,0.1,0.4
		c0.3,0,1,0,1.3,0c0.3-0.1,0.5-0.1,0.6-0.5c0.1-0.2,0.1-0.3,0.2-0.3c0.1,0,0.1,0.2,0.1,0.3c0,0.1,0,0.5,0,0.7c0,0.4,0,0.7,0,0.8
		c0,0.3-0.1,0.4-0.2,0.4c0,0-0.1-0.1-0.2-0.3c-0.1-0.4-0.3-0.5-0.4-0.5c-0.1,0-0.5-0.1-0.7-0.1c-0.2,0-0.5,0-0.7,0
		c0,0-0.1,0.1-0.1,0.1c0,0.7,0,1.8,0,2c0,0.4,0.1,0.6,0.7,0.7c0.2,0,0.3,0.1,0.3,0.2c0,0.1-0.2,0.2-0.4,0.2c-0.3,0-0.7,0-1.1,0
		c-0.6,0-1.2,0.1-1.6,0.1c-0.2,0-0.3-0.1-0.3-0.1c0-0.1,0.1-0.2,0.3-0.2c0.5-0.1,0.6-0.3,0.6-0.6c0-0.3,0.1-1,0.1-3.1
		c0-1,0-1.6,0-1.9c0-0.4-0.2-0.5-0.6-0.6c-0.2-0.1-0.3-0.1-0.3-0.2c0-0.1,0.2-0.2,0.3-0.2c0.5,0,1,0,1.4,0H48.2z"/>
	<path d="M60.9,119.1c0.3,0.1,0.5,0.1,0.8,0.2c0.1,0,0.2,0.1,0.2,0.3c0,0.3,0,0.7,0.1,1c0,0.2-0.1,0.4-0.2,0.4
		c-0.1,0-0.2-0.1-0.2-0.3c-0.1-0.3-0.3-0.6-0.5-0.8c-0.5-0.4-1-0.6-1.6-0.6c-1.7,0-2.6,1.4-2.6,3c0,0.7,0.1,1.4,0.4,1.8
		c0.6,1.2,1.6,1.6,2.4,1.6c0.1,0,0.7,0,1.1-0.2c0.4-0.2,0.7-0.5,1-1c0.1-0.2,0.2-0.3,0.3-0.3c0.1,0,0.1,0.3,0.1,0.4
		c-0.1,0.3-0.2,0.8-0.3,1c0,0.1-0.2,0.3-0.4,0.3c-0.2,0.1-0.9,0.3-1.9,0.3c-1.6,0-2.8-0.7-3.2-1.2c-0.4-0.5-0.9-1.2-0.9-2.5
		c0-1.3,0.7-2.2,1.2-2.6c0.9-0.8,2.1-1,2.9-1C60,118.9,60.5,119,60.9,119.1z"/>
	<path d="M67.9,119.2c0.1,0.3,0.3,0.8,0.4,1.2c0.6,1.7,1.3,3.7,1.6,4.2c0.4,0.9,0.6,1,1,1.1c0.2,0.1,0.3,0.1,0.3,0.2
		c0,0.1-0.1,0.2-0.4,0.2c-0.3,0-1.1,0-1.4,0c-0.4,0-0.8,0-1.1,0c-0.2,0-0.3-0.1-0.3-0.2c0-0.1,0.1-0.1,0.3-0.2
		c0.4-0.1,0.5-0.3,0.4-0.5c0-0.3-0.3-0.9-0.5-1.6c0,0-0.1-0.2-0.3-0.2c-1.2,0-1.7,0-1.8,0c0,0-0.1,0.1-0.1,0.1
		c-0.3,0.9-0.5,1.4-0.5,1.6c0,0.2,0.1,0.4,0.5,0.5c0.2,0.1,0.3,0.1,0.3,0.2c0,0.1-0.2,0.1-0.3,0.1c-0.2,0-0.5,0-0.9,0
		c-0.4,0-0.9,0-1.1,0c-0.3,0-0.3-0.1-0.3-0.1c0-0.1,0-0.2,0.3-0.2c0.6-0.2,0.7-0.3,1-1c0.3-0.5,1.4-3.6,1.9-4.7c0,0,0.1-0.2,0.1-0.2
		c0,0,0-0.1,0-0.1c0.2-0.2,0.5-0.6,0.6-0.7c0.1-0.1,0.1-0.1,0.2-0.1C67.8,118.9,67.8,118.9,67.9,119.2z M67.9,122.9
		c-0.2-0.5-0.6-1.8-0.8-2.2c0-0.1-0.1-0.1-0.1,0c-0.2,0.5-0.7,1.9-0.8,2.2c0,0.1,0,0.1,0.1,0.1C66.7,123,67.5,122.9,67.9,122.9
		C67.9,122.9,67.9,122.9,67.9,122.9z"/>
	<path d="M77.3,122.1C77.3,122.1,77.3,122.2,77.3,122.1c0.8,0.4,1.3,1,1.3,1.9c0,0.7-0.4,1.2-0.9,1.6c-0.5,0.4-1.5,0.5-2,0.5
		c-0.3,0-1.5,0-2,0c-0.4,0-0.7,0-0.8,0c-0.2,0-0.3-0.1-0.3-0.2c0-0.1,0.2-0.2,0.3-0.2c0.7-0.1,0.7-0.3,0.8-0.7
		c0-0.2,0.1-1.3,0.1-3.5c0-0.9,0-1.5-0.1-1.6c-0.1-0.2-0.1-0.3-0.7-0.4c-0.1,0-0.3-0.1-0.3-0.2c0-0.1,0.2-0.1,0.3-0.1h0.7
		c0.3,0,1.7-0.1,2.1-0.1c0.6,0,1.2,0.1,1.6,0.3c0.5,0.3,0.8,0.8,0.8,1.3C78.2,121.5,77.6,121.9,77.3,122.1z M75.5,119.4
		c-0.1,0-0.3,0-0.4,0.1c0,0-0.1,0.1-0.1,0.2c0,0.2,0,0.5,0,2.3c0,0.1,0.1,0.1,0.1,0.1c0.4,0,1-0.1,1.3-0.3c0.3-0.2,0.5-0.6,0.5-1
		C76.9,119.9,76.3,119.4,75.5,119.4z M76.4,122.7c-0.3-0.1-0.6-0.2-0.9-0.2c-0.2,0-0.3,0-0.4,0.1c0,0-0.1,0.1-0.1,0.5
		c0,0.3,0,1.6,0,1.9c0,0.1,0.1,0.3,0.1,0.3c0.2,0.2,0.5,0.4,0.7,0.4c0.7,0,1.3-0.7,1.3-1.6C77.2,123.4,76.9,122.9,76.4,122.7z"/>
	<path d="M85.4,122.2c0,0-0.3,0.2-0.4,0.2c-0.1,0,0,0.1,0,0.2c0.2,0.4,1.1,1.9,1.6,2.6c0.3,0.3,0.6,0.5,0.9,0.5
		c0.1,0,0.2,0.1,0.2,0.2c0,0.1-0.1,0.1-0.2,0.2c-0.2,0.1-0.6,0.1-0.7,0.1c-1,0-1.4-0.4-1.6-0.7c-0.3-0.4-0.9-1.3-1.3-2.1
		c-0.1-0.2-0.3-0.4-0.3-0.5c-0.1-0.1-0.3-0.1-0.5-0.1c0,0-0.1,0.1-0.1,0.1c0,0.2,0,1.7,0,2.2c0,0.5,0.1,0.6,0.6,0.7
		c0.2,0.1,0.3,0.1,0.3,0.2c0,0.1-0.2,0.2-0.3,0.2c-0.4,0-0.9-0.1-1.4-0.1c-0.4,0-0.9,0-1,0c-0.3,0-0.3-0.1-0.3-0.2
		c0-0.1,0.1-0.1,0.3-0.2c0.5-0.2,0.6-0.3,0.7-0.6c0.1-0.8,0.1-1.8,0.1-2.7c0-1.2,0-2.1-0.1-2.4c0-0.3-0.1-0.4-0.6-0.5
		c-0.2,0-0.3-0.1-0.3-0.2c0-0.1,0.1-0.2,0.3-0.2c0.3,0,0.6,0,0.8,0c0.4,0,1.3-0.1,1.9-0.1c0.5,0,1.4,0,1.9,0.5
		c0.3,0.3,0.6,0.8,0.6,1.3C86.2,121.4,85.9,121.8,85.4,122.2z M84.4,119.8c-0.3-0.3-0.6-0.4-0.9-0.4c0,0-0.3,0-0.4,0.1
		c-0.1,0-0.1,0.2-0.1,0.2c0,0.4-0.1,2.3,0,2.6c0,0.1,0.1,0.1,0.1,0.1c0.6,0,1.1-0.2,1.2-0.2c0.3-0.2,0.6-0.6,0.6-1.2
		C84.9,120.7,84.8,120.2,84.4,119.8z"/>
	<path d="M92.9,119.2c0.1,0.3,0.3,0.8,0.4,1.2c0.6,1.7,1.3,3.7,1.6,4.2c0.4,0.9,0.6,1,1,1.1c0.2,0.1,0.3,0.1,0.3,0.2
		c0,0.1-0.1,0.2-0.4,0.2c-0.3,0-1.1,0-1.4,0c-0.4,0-0.8,0-1.1,0c-0.2,0-0.3-0.1-0.3-0.2c0-0.1,0.1-0.1,0.3-0.2
		c0.4-0.1,0.5-0.3,0.4-0.5c0-0.3-0.3-0.9-0.5-1.6c0,0-0.1-0.2-0.3-0.2c-1.2,0-1.7,0-1.8,0c0,0-0.1,0.1-0.1,0.1
		c-0.3,0.9-0.5,1.4-0.5,1.6c0,0.2,0.1,0.4,0.5,0.5c0.2,0.1,0.3,0.1,0.3,0.2c0,0.1-0.2,0.1-0.3,0.1c-0.2,0-0.5,0-0.9,0
		c-0.4,0-0.9,0-1.1,0c-0.3,0-0.3-0.1-0.3-0.1c0-0.1,0-0.2,0.3-0.2c0.6-0.2,0.7-0.3,1-1c0.3-0.5,1.4-3.6,1.9-4.7c0,0,0.1-0.2,0.1-0.2
		c0,0,0-0.1,0-0.1c0.2-0.2,0.5-0.6,0.6-0.7c0.1-0.1,0.1-0.1,0.2-0.1C92.8,118.9,92.8,118.9,92.9,119.2z M92.9,122.9
		c-0.2-0.5-0.6-1.8-0.8-2.2c0-0.1-0.1-0.1-0.1,0c-0.2,0.5-0.7,1.9-0.8,2.2c0,0.1,0,0.1,0.1,0.1C91.7,123,92.5,122.9,92.9,122.9
		C92.9,122.9,92.9,122.9,92.9,122.9z"/>
	<path d="M100.1,123.2c0.1,0,0.1,0.1,0.1,0.1c0,0.2-0.1,0.7-0.2,0.7c-0.4,0-1.5,0.1-2.1,0.2c-0.1,0-0.2-0.1-0.2-0.2
		c0-0.2,0.1-0.6,0.2-0.6C98.3,123.4,99.9,123.2,100.1,123.2z"/>
	<path d="M101.4,119c0.2,0,0.8,0.1,1.3,0.1c0.4,0,1,0,1.3,0c0.1,0,0.3,0.1,0.3,0.1c0,0.1-0.1,0.2-0.3,0.2c-0.5,0.1-0.5,0.3-0.4,0.6
		c0.2,0.5,1.3,3.4,1.6,4c0,0,0.1,0,0.1,0c0.1-0.2,1.2-2.9,1.6-3.7c0.2-0.6-0.1-0.7-0.5-0.9c-0.1,0-0.2-0.1-0.2-0.2
		c0-0.1,0.1-0.2,0.3-0.2c0.3,0,0.6,0,0.9,0c0.3,0,0.8,0,1,0c0.2,0,0.3,0.1,0.3,0.2c0,0.1-0.1,0.2-0.3,0.2c-0.5,0.1-0.7,0.3-1,0.9
		c-0.2,0.5-0.9,1.9-1.6,3.5c-0.4,0.9-0.6,1.5-0.8,2.1c0,0.1-0.2,0.3-0.3,0.3c-0.1,0-0.2-0.2-0.2-0.3c-0.1-0.2-0.3-0.9-0.6-1.7
		c-0.4-1-1.2-3-1.6-4c-0.2-0.5-0.4-0.8-0.9-0.9c-0.1,0-0.3-0.1-0.3-0.2C101.1,119.1,101.2,119,101.4,119z"/>
	<path d="M112.5,119.2c0.1,0.3,0.3,0.8,0.4,1.2c0.6,1.7,1.3,3.7,1.6,4.2c0.4,0.9,0.6,1,1,1.1c0.2,0.1,0.3,0.1,0.3,0.2
		c0,0.1-0.1,0.2-0.4,0.2c-0.3,0-1.1,0-1.4,0c-0.4,0-0.8,0-1.1,0c-0.2,0-0.3-0.1-0.3-0.2c0-0.1,0.1-0.1,0.3-0.2
		c0.4-0.1,0.5-0.3,0.4-0.5c0-0.3-0.3-0.9-0.5-1.6c0,0-0.1-0.2-0.3-0.2c-1.2,0-1.7,0-1.8,0c0,0-0.1,0.1-0.1,0.1
		c-0.3,0.9-0.5,1.4-0.5,1.6c0,0.2,0.1,0.4,0.5,0.5c0.2,0.1,0.3,0.1,0.3,0.2c0,0.1-0.2,0.1-0.3,0.1c-0.2,0-0.5,0-0.9,0
		c-0.4,0-0.9,0-1.1,0c-0.3,0-0.3-0.1-0.3-0.1c0-0.1,0-0.2,0.3-0.2c0.6-0.2,0.7-0.3,1-1c0.3-0.5,1.4-3.6,1.9-4.7c0,0,0.1-0.2,0.1-0.2
		c0,0,0-0.1,0-0.1c0.2-0.2,0.5-0.6,0.6-0.7c0.1-0.1,0.1-0.1,0.2-0.1C112.4,118.9,112.4,118.9,112.5,119.2z M112.5,122.9
		c-0.2-0.5-0.6-1.8-0.8-2.2c0-0.1-0.1-0.1-0.1,0c-0.2,0.5-0.7,1.9-0.8,2.2c0,0.1,0,0.1,0.1,0.1C111.3,123,112.1,122.9,112.5,122.9
		C112.5,122.9,112.5,122.9,112.5,122.9z"/>
	<path d="M117.8,119.1c0.3,0,0.8,0,1.1,0c0.4,0,1.2,0,1.4,0c0.3,0,0.3,0.1,0.3,0.1c0,0.1-0.1,0.2-0.2,0.2c-0.6,0.1-0.7,0.3-0.7,0.4
		c-0.1,0.5-0.1,1.6-0.1,3.3c0,0.8,0,1.6,0.1,2c0,0.3,0.3,0.4,0.4,0.4c0.2,0,0.6,0.1,0.9,0.1c0.2,0,0.6,0,0.8-0.1
		c0.1,0,0.2,0,0.3-0.2c0.1-0.1,0.4-0.4,0.7-0.9c0.1-0.1,0.2-0.2,0.3-0.2c0.1,0,0.1,0.1,0,0.3c-0.1,0.4-0.3,1-0.3,1.3
		c0,0.1-0.2,0.2-0.3,0.2c-0.2,0-1.1-0.1-3.3-0.1c-0.5,0-1.3,0.1-1.6,0.1c-0.2,0-0.3,0-0.3-0.1c0-0.1,0.1-0.2,0.3-0.2
		c0.6-0.1,0.7-0.3,0.8-0.8c0-0.3,0.1-1.4,0.1-3c0-1.1,0-1.5,0-1.8c0-0.4-0.1-0.5-0.6-0.7c-0.2-0.1-0.3-0.1-0.3-0.2
		C117.5,119.1,117.6,119.1,117.8,119.1z"/>
	<path d="M128.9,119.1c0.4,0,0.8,0,1-0.1c0,0,0.1,0.1,0.1,0.1c0,0.2,0,0.9,0,1.2c0,0.2-0.1,0.3-0.2,0.3c-0.1,0-0.2-0.2-0.2-0.3
		c-0.1-0.6-0.4-0.8-0.7-0.8c-0.2,0-0.7-0.1-1.5-0.1c0,0-0.1,0-0.1,0.3c0,0.3-0.1,1.8,0,2.4c0,0,0,0.1,0.1,0.1h0.9c0.8,0,0.8,0,1-0.5
		c0.1-0.2,0.1-0.3,0.2-0.3c0.1,0,0.1,0.2,0.1,0.3c0,0.3,0,0.5,0,0.8c0,0.3,0,0.5,0,0.7c0,0.2-0.1,0.3-0.1,0.3s-0.2-0.1-0.2-0.2
		c-0.1-0.5-0.3-0.6-0.7-0.6c-0.3,0-0.8,0-1.1,0c0,0-0.1,0.1-0.1,0.1c0,0.3,0,1.2,0,1.5c0,0.3,0,0.7,0,0.9c0,0.1,0.1,0.2,0.2,0.3
		c0.2,0,0.5,0.1,0.9,0.1c0.3,0,0.7,0,1-0.1c0.3-0.1,0.6-0.4,0.9-0.8c0.2-0.3,0.3-0.4,0.3-0.4c0.1,0,0.1,0.2,0.1,0.3
		c0,0.1-0.3,1.1-0.4,1.3c0,0.1-0.2,0.1-0.3,0.1c-0.1,0-2.8-0.1-3.6-0.1c-0.7,0-0.9,0.1-1.2,0.1c-0.2,0-0.4,0-0.4-0.1
		c0-0.1,0.1-0.2,0.3-0.2c0.6-0.1,0.7-0.2,0.7-0.8c0-0.5,0.1-1.3,0.1-2.6c0-1.3,0-1.8,0-2.1c0-0.4-0.1-0.6-0.6-0.7
		c-0.2,0-0.3-0.1-0.3-0.2c0-0.1,0.2-0.2,0.3-0.2c0.5,0,1.4,0,2,0H128.9z"/>
	<path d="M142,120.1c0.6,0.6,1,1.5,1,2.4c0,1.5-1,2.7-1.7,3.1c-0.6,0.4-1.6,0.6-2.5,0.6c-0.4,0-1.5,0-2.2-0.1c-0.3,0-0.6,0-0.7,0
		c-0.2,0-0.4-0.1-0.4-0.2c0-0.1,0.2-0.2,0.3-0.2c0.7-0.1,0.7-0.2,0.8-1.2c0-0.6,0-1,0-1.5c0-0.6,0-1.8,0-2.5c0-0.7-0.1-0.9-0.7-1
		c-0.1,0-0.3-0.1-0.3-0.2c0-0.1,0.1-0.2,0.3-0.2h0.6c0.5,0,1.8-0.1,2.6-0.1C140.6,119,141.6,119.7,142,120.1z M138,119.5
		c-0.1,0-0.1,0.1-0.1,0.2c0,0.3,0,1,0,1.9v1.6c0,0.8,0,1.3,0,1.8c0,0.3,0.1,0.4,0.2,0.5c0.2,0.2,0.6,0.3,0.7,0.3
		c0.4,0,1-0.1,1.6-0.6c0.7-0.6,1-1.6,1-2.7c0-0.8-0.3-1.7-0.9-2.3c-0.5-0.5-1.3-0.8-2.1-0.8C138.3,119.4,138.2,119.4,138,119.5z"/>
	<path d="M145.9,120.3c0-0.5,0-0.7-0.6-0.8c-0.3-0.1-0.3-0.1-0.3-0.2c0-0.1,0.2-0.2,0.4-0.2c0.3,0,0.9,0,1.2,0c0.5,0,0.9,0,1.3,0
		c0.2,0,0.3,0,0.3,0.2c0,0.1-0.2,0.2-0.3,0.2c-0.5,0.1-0.6,0.4-0.6,0.7c0,0.3,0,0.7,0,2.5c0,1.3,0,1.8,0,2.1c0,0.6,0.1,0.8,0.7,0.9
		c0.2,0,0.3,0.1,0.3,0.2c0,0.1-0.2,0.1-0.3,0.1c-0.4,0-1.2-0.1-1.6-0.1c-0.3,0-0.6,0-1,0c-0.3,0-0.3-0.1-0.3-0.2
		c0-0.1,0.1-0.2,0.3-0.2c0.5-0.1,0.6-0.3,0.6-0.8c0-0.4,0.1-1.5,0.1-2.5C146,121.8,146,120.7,145.9,120.3z"/>
	<path d="M156.2,119.1c0.2,0,0.4,0.1,0.5,0.1c0,0,0.1,0.1,0.1,0.3c0,0.3,0.2,0.9,0.2,1.3c0,0.1-0.1,0.3-0.2,0.3
		c-0.1,0-0.1-0.1-0.2-0.3c-0.1-0.2-0.3-0.6-0.4-0.8c-0.2-0.3-0.9-0.7-1.7-0.7c-1.6,0-2.6,1.5-2.6,3.2c0,0.8,0.1,1.4,0.5,2
		c0.5,0.8,1.3,1.4,2.3,1.4c0.1,0,0.4-0.1,0.7-0.2c0.1-0.1,0.2-0.4,0.2-0.8c0-0.4,0-0.8,0-1c-0.1-0.3-0.2-0.5-0.9-0.5
		c-0.2,0-0.3-0.1-0.3-0.2c0-0.1,0.2-0.2,0.4-0.2c0.4,0,1,0,1.3,0c0.3,0,0.9-0.1,1.3-0.1c0.2,0,0.3,0.1,0.3,0.2
		c0,0.1-0.1,0.2-0.3,0.2c-0.4,0.1-0.4,0.2-0.4,0.4c0,0.1-0.1,0.9-0.1,1.4c0,0.2,0,0.2,0.2,0.3c0.1,0.1,0.1,0.1,0.1,0.2
		c0,0.1-0.1,0.1-0.2,0.2c-0.2,0.1-0.6,0.2-1,0.2c-0.5,0.1-1.3,0.2-1.6,0.2c-1.2,0-2.3-0.4-2.9-0.9c-0.5-0.5-1.1-1.3-1.1-2.7
		c0-1.1,0.5-2,1.2-2.6c0.7-0.6,1.8-1,2.9-1C155.2,118.9,155.8,119,156.2,119.1z"/>
	<path d="M165.6,119.1c0.2,0,0.4,0.1,0.5,0.1c0,0,0.1,0.1,0.1,0.3c0,0.3,0.2,0.9,0.2,1.3c0,0.1-0.1,0.3-0.2,0.3
		c-0.1,0-0.1-0.1-0.2-0.3c-0.1-0.2-0.3-0.6-0.4-0.8c-0.2-0.3-0.9-0.7-1.7-0.7c-1.6,0-2.6,1.5-2.6,3.2c0,0.8,0.1,1.4,0.5,2
		c0.5,0.8,1.3,1.4,2.3,1.4c0.1,0,0.4-0.1,0.7-0.2c0.1-0.1,0.2-0.4,0.2-0.8c0-0.4,0-0.8,0-1c-0.1-0.3-0.2-0.5-0.9-0.5
		c-0.2,0-0.3-0.1-0.3-0.2c0-0.1,0.2-0.2,0.4-0.2c0.4,0,1,0,1.3,0c0.3,0,0.9-0.1,1.3-0.1c0.2,0,0.3,0.1,0.3,0.2
		c0,0.1-0.1,0.2-0.2,0.2c-0.4,0.1-0.4,0.2-0.4,0.4c0,0.1-0.1,0.9-0.1,1.4c0,0.2,0,0.2,0.2,0.3c0.1,0.1,0.1,0.1,0.1,0.2
		c0,0.1-0.1,0.1-0.2,0.2c-0.2,0.1-0.6,0.2-1,0.2c-0.5,0.1-1.3,0.2-1.6,0.2c-1.2,0-2.3-0.4-2.9-0.9c-0.5-0.5-1.1-1.3-1.1-2.7
		c0-1.1,0.5-2,1.2-2.6c0.7-0.6,1.8-1,2.9-1C164.6,118.9,165.2,119,165.6,119.1z"/>
	<path d="M172.9,119.1c0.4,0,0.8,0,1-0.1c0,0,0.1,0.1,0.1,0.1c0,0.2,0,0.9,0,1.2c0,0.2-0.1,0.3-0.2,0.3c-0.1,0-0.2-0.2-0.2-0.3
		c-0.1-0.6-0.4-0.8-0.7-0.8c-0.2,0-0.7-0.1-1.5-0.1c0,0-0.1,0-0.1,0.3c0,0.3-0.1,1.8,0,2.4c0,0,0,0.1,0.1,0.1h0.9c0.8,0,0.8,0,1-0.5
		c0.1-0.2,0.1-0.3,0.2-0.3c0.1,0,0.1,0.2,0.1,0.3c0,0.3,0,0.5,0,0.8c0,0.3,0,0.5,0,0.7c0,0.2-0.1,0.3-0.1,0.3
		c-0.1,0-0.2-0.1-0.2-0.2c-0.1-0.5-0.3-0.6-0.7-0.6c-0.3,0-0.8,0-1.1,0c0,0-0.1,0.1-0.1,0.1c0,0.3,0,1.2,0,1.5c0,0.3,0,0.7,0,0.9
		c0,0.1,0.1,0.2,0.2,0.3c0.2,0,0.5,0.1,0.9,0.1c0.3,0,0.7,0,1-0.1c0.3-0.1,0.6-0.4,0.9-0.8c0.2-0.3,0.3-0.4,0.3-0.4
		c0.1,0,0.1,0.2,0.1,0.3c0,0.1-0.3,1.1-0.4,1.3c0,0.1-0.2,0.1-0.3,0.1c-0.1,0-2.8-0.1-3.6-0.1c-0.7,0-0.9,0.1-1.2,0.1
		c-0.2,0-0.4,0-0.4-0.1c0-0.1,0.1-0.2,0.3-0.2c0.6-0.1,0.7-0.2,0.7-0.8c0-0.5,0.1-1.3,0.1-2.6c0-1.3,0-1.8,0-2.1
		c0-0.4-0.1-0.6-0.6-0.7c-0.2,0-0.3-0.1-0.3-0.2c0-0.1,0.2-0.2,0.3-0.2c0.5,0,1.4,0,2,0H172.9z"/>
	<path d="M181.2,122.2c0,0-0.3,0.2-0.4,0.2c-0.1,0,0,0.1,0,0.2c0.2,0.4,1.1,1.9,1.6,2.6c0.3,0.3,0.6,0.5,0.9,0.5
		c0.1,0,0.2,0.1,0.2,0.2c0,0.1-0.1,0.1-0.2,0.2c-0.2,0.1-0.6,0.1-0.7,0.1c-1,0-1.4-0.4-1.6-0.7c-0.3-0.4-0.9-1.3-1.3-2.1
		c-0.1-0.2-0.3-0.4-0.3-0.5c-0.1-0.1-0.3-0.1-0.5-0.1c0,0-0.1,0.1-0.1,0.1c0,0.2,0,1.7,0,2.2c0,0.5,0.1,0.6,0.6,0.7
		c0.2,0.1,0.3,0.1,0.3,0.2c0,0.1-0.2,0.2-0.3,0.2c-0.4,0-0.9-0.1-1.4-0.1c-0.4,0-0.9,0-1,0c-0.3,0-0.3-0.1-0.3-0.2
		c0-0.1,0.1-0.1,0.3-0.2c0.5-0.2,0.6-0.3,0.7-0.6c0.1-0.8,0.1-1.8,0.1-2.7c0-1.2,0-2.1-0.1-2.4c0-0.3-0.1-0.4-0.6-0.5
		c-0.2,0-0.3-0.1-0.3-0.2c0-0.1,0.1-0.2,0.3-0.2c0.3,0,0.6,0,0.8,0c0.4,0,1.3-0.1,1.9-0.1c0.5,0,1.4,0,1.9,0.5
		c0.3,0.3,0.6,0.8,0.6,1.3C181.9,121.4,181.7,121.8,181.2,122.2z M180.1,119.8c-0.3-0.3-0.6-0.4-0.9-0.4c0,0-0.3,0-0.4,0.1
		c-0.1,0-0.1,0.2-0.1,0.2c0,0.4-0.1,2.3,0,2.6c0,0.1,0.1,0.1,0.1,0.1c0.6,0,1.1-0.2,1.2-0.2c0.3-0.2,0.6-0.6,0.6-1.2
		C180.6,120.7,180.5,120.2,180.1,119.8z"/>
	<path d="M189.2,119.1c0,0,0.1,0.2,0.1,0.2c0,0.1,0.1,1,0.1,1c0,0.2,0,0.3-0.1,0.3c-0.1,0-0.3-0.1-0.3-0.3c-0.1-0.4-0.3-0.7-0.5-0.8
		c-0.3-0.2-0.5-0.3-0.9-0.3c-0.5,0-1.1,0.4-1.1,1.1c0,0.6,0.5,1,1.5,1.6c1.3,0.8,1.6,1.5,1.6,2.2c0,0.6-0.3,1.2-1,1.6
		c-0.4,0.2-1,0.4-1.5,0.4c-0.6,0-1.1-0.1-1.6-0.3c-0.1,0-0.3-0.3-0.3-0.3c-0.1-0.4-0.2-0.9-0.2-1.2c0-0.1,0.1-0.2,0.2-0.2
		c0.1,0,0.3,0.3,0.4,0.6c0.3,0.7,1,1,1.5,1c0.5,0,1.1-0.4,1.1-1.1c0-0.5-0.2-0.9-1.2-1.6c-1.1-0.7-1.7-1.3-1.7-2.3
		c0-0.6,0.3-1.1,0.7-1.4c0.4-0.3,0.9-0.5,1.7-0.5C188.3,118.9,188.9,119,189.2,119.1z"/>
</g>
</svg>
