<?xml version="1.0" encoding="utf-8"?>
<!-- Generator: Adobe Illustrator 21.0.0, SVG Export Plug-In . SVG Version: 6.00 Build 0)  -->
<svg version="1.1" id="cvd-logo" xmlns="http://www.w3.org/2000/svg" xmlns:xlink="http://www.w3.org/1999/xlink" x="0px" y="0px"
	 viewBox="0 0 370 223.7" xml:space="preserve">
<style type="text/css">
	.st0{fill:#C4A006;}
        #cvd-logo .fan_left {
          transform-origin: 100% 100%;
        }
        @keyframes open-left {
          from  {
             transform: rotate(88deg);
          }
          to {
             transform: rotate(0deg);
          }
        }
        #cvd-logo .fan_right {
          transform-origin: 0% 100%;
        }
        @keyframes open-right {
          from  {
             transform: rotate(-88deg);
          }
          to {
             transform: rotate(0deg);
          }
        }
        @keyframes inner-fan-right {
          0% {
              clip-path: polygon(50% 0, 50% 0, 50% 0, 50% 0, 50% 0, 50% 100%, 50% 0, 50% 0, 50% 0, 50% 0);
          }
          37% {
              clip-path: polygon(50% 0, 79% 16%, 79% 16%, 79% 16%, 79% 16%, 50% 100%, 21% 16%, 21% 16%, 21% 16%, 21% 16%);
          }
          70% {
              clip-path: polygon(50% 0, 79% 16%, 93% 48%, 93% 48%, 93% 48%, 50% 100%, 7% 48%, 7% 48%, 7% 48%, 21% 16%);
          }
          90% {
              clip-path: polygon(50% 0, 79% 16%, 93% 48%, 100% 89%, 100% 89%, 50% 100%, 0 89%, 0 89%, 7% 48%, 21% 16%);
          }
          100% {
              clip-path: polygon(50% 0, 79% 16%, 93% 48%, 100% 89%, 100% 100%, 50% 100%,0 100%, 0 89%, 7% 48%, 21% 16%);
          }
        }
        #cvd-logo:hover .fan_left {
          animation: 5s open-left linear forwards;
        }
        #cvd-logo:hover .fan_right {
          animation: 5s open-right linear forwards;
        }
        #cvd-logo:hover .inner-fan {
          animation: 5s inner-fan-right linear forwards;
        }
</style>
<path class="st0 fan_left" d="M170.4,167.3c0,0.7-55.3-2.7-99-5c-43.7-2.3-55.8-2.5-59.7-2.9c-4.2-0.4-11.8-3.2-11.6-7.1
	c0.3-4.3,9-4.9,13.6-4.6c4.3,0.3,65.9,8.2,88.1,10.9C123.8,161.3,170.4,166.6,170.4,167.3z"/>
<path class="st0 fan_right" d="M189.7,167.3c0,0.7,55.3-2.7,99-5c43.7-2.3,55.8-2.5,59.7-2.9c4.2-0.4,11.8-3.2,11.6-7.1
	c-0.3-4.3-9-4.9-13.6-4.6c-4.3,0.3-65.9,8.2-88.1,10.9C236.2,161.3,189.6,166.6,189.7,167.3z"/>
<g class="inner-fan">
  <path class="st0 fan_gold_1" d="M94.5,134.5c-10.8-1.1-39.9-3.6-43.3-3.8c-3.4-0.1-12.5,0.1-12.5,3.4c-0.1,3.1,8.5,4.2,12.3,4.5 c4.6,0.3,21,1,43.4,1.9c2.9,0.1,6.4,0.2,10.1,0.4c0.2-1.8,0.4-3.6,0.7-5.4C100.3,135.1,96.5,134.7,94.5,134.5z"/>
    <path d="M129.1,132.2c-13.3-2.6-50.3-10.2-52.9-10.6c-2.7-0.4-8.1-0.8-8.4,0.9c-0.3,1.6,3.8,3.1,6.7,3.7c2.7,0.6,9.9,1.6,36.3,5.6 c6.7,1,13.9,2.1,20.8,3.1c0.2-0.7,0.4-1.5,0.7-2.2C131.1,132.6,130,132.4,129.1,132.2z"/>
    <path d="M132.9,118.5c-12.2-6-46.1-22.7-48.4-23.8c-2.5-1.1-7.6-2.8-8.4-1.2c-0.7,1.4,2.9,3.9,5.5,5.3c2.5,1.3,9.1,4.1,33.6,14.7 c6.9,3,14.3,6.2,21.4,9.3c0.4-0.6,0.8-1.2,1.1-1.8C136,120,134.4,119.2,132.9,118.5z"/>
  <path class="st0 fan_gold_2" d="M108.7,93.8c-8.9-6.2-33.1-22.5-36.1-24.3c-2.9-1.8-11-5.9-12.6-3.1c-1.5,2.6,5.4,7.8,8.6,9.9 c3.8,2.5,17.9,11.1,37.1,22.7c3.2,1.9,7.1,4.3,11.4,6.9c1-1.5,2-2.9,3.1-4.2C114.8,98,110.7,95.2,108.7,93.8z"/>
    <path d="M141.4,107.7c-10.4-8.8-39.1-33.3-41.1-34.9c-2.2-1.7-6.7-4.6-7.8-3.3c-1,1.2,1.9,4.5,4.1,6.5c2.1,1.8,7.8,6.2,29,22.5 c6.1,4.7,12.6,9.7,18.8,14.4c0.5-0.5,1-1,1.6-1.5C144.2,110,142.7,108.8,141.4,107.7z"/>
    <path d="M149.7,100c-7.8-11.1-29.3-42.2-30.9-44.2c-1.7-2.2-5.3-6.2-6.7-5.2c-1.3,0.9,0.7,4.9,2.3,7.3c1.5,2.3,6,8,22.3,29.1 c4.9,6.4,10.2,13.2,15.2,19.6c0.6-0.4,1.2-0.8,1.8-1.1C152.1,103.5,150.8,101.6,149.7,100z"/>
  <path class="st0 fan_gold_3" d="M141.2,66.2c-4.8-9.7-18.5-35.5-20.2-38.5c-1.7-3-6.8-10.4-9.7-8.7c-2.6,1.6,1,9.5,2.8,12.8 c2.2,4,10.5,18.2,21.9,37.6c2,3.5,4.6,7.8,7.4,12.5c1.5-0.8,3.1-1.6,4.6-2.3C144.9,73.4,142.4,68.5,141.2,66.2z"/>
    <path d="M161.9,93.9c-4.7-12.7-17.7-48.2-18.7-50.6c-1.1-2.5-3.6-7.3-5.2-6.7c-1.5,0.6-0.6,4.9,0.4,7.7c0.9,2.6,3.8,9.2,14.3,33.8 c3.2,7.5,6.6,15.5,9.9,23.1c0.6-0.2,1.3-0.5,2-0.7C163.5,98.1,162.6,95.8,161.9,93.9z"/>
    <path d="M173.8,90.2c-1.6-13.5-5.9-51-6.3-53.6c-0.4-2.7-1.8-7.9-3.5-7.7c-1.6,0.2-1.7,4.6-1.5,7.5c0.3,2.8,1.5,9.9,5.9,36.2 c1.4,8.4,2.9,17.5,4.3,26c0.7-0.1,1.3-0.2,2-0.2C174.4,95.4,174.1,92.6,173.8,90.2z"/>
  <path class="st0 fan_gold_4" d="M182.6,72.6c0.2-7.8,0.4-14.1,0.5-16.8c0.4-10.8,1-40,1-43.5C184,8.8,183.1-0.1,179.8,0 c-3.1,0.1-3.7,8.8-3.7,12.6c0,4.6,0.4,21,1,43.4c0.1,4.5,0.3,10.3,0.4,16.6C179.2,72.5,180.9,72.5,182.6,72.6z"/>
    <path d="M191.7,72.7c4.4-26.4,5.6-33.5,5.9-36.2c0.3-2.9,0.1-7.3-1.5-7.5c-1.8-0.2-3.1,5-3.5,7.7c-0.4,2.6-4.7,40.1-6.3,53.6 c-0.3,2.4-0.6,5.2-1,8.2c0.7,0.1,1.3,0.2,2,0.3C188.8,90.2,190.3,81.1,191.7,72.7z"/>
    <path d="M207.6,78.1c10.5-24.6,13.3-31.2,14.3-33.8c1-2.8,1.9-7.1,0.4-7.7c-1.7-0.6-4.2,4.1-5.2,6.7c-1,2.4-14,37.9-18.7,50.6 c-0.7,2-1.6,4.3-2.5,6.8c0.7,0.2,1.3,0.5,1.9,0.7C200.9,93.8,204.4,85.6,207.6,78.1z"/>
  <path class="st0 fan_gold_5" d="M224.1,69.3C235.4,50,243.7,35.8,246,31.8c1.8-3.3,5.5-11.2,2.8-12.8c-2.8-1.7-7.9,5.7-9.7,8.7 c-1.7,3-15.4,28.8-20.2,38.5c-1.2,2.3-3.7,7.3-7,13.5c1.6,0.7,3.1,1.5,4.6,2.4C219.4,77.3,222,72.9,224.1,69.3z"/>
    <path d="M223.5,87.1c16.3-21.2,20.8-26.8,22.3-29.1c1.6-2.4,3.6-6.4,2.3-7.3c-1.4-1-5.1,3-6.7,5.2c-1.6,2.1-23.1,33.1-30.9,44.2 c-1.2,1.7-2.6,3.7-4.1,5.8c0.6,0.4,1.2,0.8,1.7,1.1C213.2,100.4,218.6,93.5,223.5,87.1z"/>
    <path d="M215.5,113.2c6.3-4.8,12.9-9.9,19.1-14.7c21.2-16.3,26.9-20.7,29-22.5c2.2-1.9,5.1-5.3,4.1-6.5c-1.1-1.3-5.7,1.6-7.8,3.3 c-2.1,1.6-30.8,26.1-41.1,34.9c-1.4,1.2-3,2.5-4.7,4C214.5,112.1,215,112.6,215.5,113.2z"/>
  <path class="st0 fan_gold_6" d="M254.5,99c19.2-11.6,33.2-20.2,37.1-22.7c3.2-2.1,10.1-7.3,8.6-9.9c-1.7-2.9-9.7,1.3-12.6,3.1 c-2.9,1.8-27.2,18.1-36.1,24.3c-2,1.4-6.4,4.4-11.9,8.2c1.1,1.4,2.1,2.8,3.1,4.2C247.2,103.4,251.2,101,254.5,99z"/>
    <path d="M244.9,113.5c24.5-10.6,31.2-13.4,33.6-14.7c2.6-1.3,6.3-3.9,5.5-5.3c-0.8-1.6-5.9,0.1-8.4,1.2 c-2.4,1.1-36.3,17.8-48.4,23.8c-1.6,0.8-3.4,1.7-5.4,2.6c0.4,0.6,0.8,1.2,1.1,1.8C230.3,119.8,237.9,116.6,244.9,113.5z"/>
    <path d="M292.4,122.5c-0.4-1.7-5.7-1.4-8.4-0.9c-2.6,0.4-39.6,7.9-52.9,10.6c-1.1,0.2-2.3,0.5-3.6,0.7c0.2,0.7,0.4,1.4,0.6,2.2 c7.1-1.1,14.4-2.2,21.3-3.2c26.4-4,33.6-5,36.3-5.6C288.6,125.6,292.8,124.1,292.4,122.5z"/>
  <path class="st0 fan_gold_7" d="M309,130.7c-3.4,0.1-32.6,2.6-43.3,3.8c-2.1,0.2-6.1,0.6-11.3,1.1c0.3,1.8,0.5,3.6,0.7,5.4 c4-0.2,7.6-0.3,10.7-0.4c22.4-0.9,38.8-1.6,43.4-1.9c3.8-0.3,12.4-1.4,12.3-4.5C321.5,130.9,312.5,130.6,309,130.7z"/>
</g>
<g>
	<path d="M12.5,222.3c1.8,0,3.5-1,4.6-5.1c1.1-4.4,1.2-4.5,1.7-4.5c0.8,0,0.9,0.1,0.9,5.4c0,2.5-0.1,3.2-0.7,3.7
		c-0.7,0.6-3.4,1.7-6.6,1.7c-7.7,0-12.4-7.5-12.4-16.1c0-9.8,5.5-15.9,12.3-15.9c2.5,0,4.6,0.5,6.1,1.4c0.5,0.3,0.6,0.4,0.6,3.8
		c0,3.6-0.1,3.8-0.9,3.8c-0.4,0-0.8-0.5-1.8-3.2c-1.4-3.9-2.6-4.5-4.2-4.5c-4.4,0-6.9,4.3-6.9,14.3C5.2,217.6,8.7,222.3,12.5,222.3z
		"/>
	<path d="M26.8,212.1c-0.7,0-0.7,0.3-1.4,3.1c-1,4.1-1.2,4.7-1.2,5.1c0,0.6,0.4,1.1,1.5,1.5c0.9,0.3,2.3,0.1,2.3,0.7
		c0,0.3-0.1,0.6-0.9,0.6c-0.4,0-2.3-0.2-3.5-0.2c-2.3,0-3.2,0.2-3.6,0.2c-0.3,0-0.5-0.1-0.5-0.5c0-0.7,0.6-0.4,1.6-0.9
		c1.1-0.5,1.6-2.8,5.5-15.7c4.3-14.1,3.9-14.3,4.8-14.3c1,0,0.6,0.6,6.6,20c2.4,7.9,2.7,9.7,3.7,10c1.1,0.4,1.7,0.2,1.7,0.8
		c0,0.3-0.1,0.5-1,0.5c-0.8,0-2.3-0.2-4.1-0.2c-2.6,0-4.4,0.2-4.9,0.2c-0.5,0-0.6-0.2-0.6-0.6c0-0.4,0.5-0.4,2.1-0.8
		c0.6-0.1,0.8-0.7,0.8-1.1c0-0.4-0.2-1.1-1.2-4.6c-1-3.6-1-3.9-1.6-3.9H26.8z M32.5,210.8c0.3,0,0.4,0,0.4-0.1
		c0-0.3-0.3-1.2-2.1-7.6c-0.7-2.5-0.7-2.7-0.9-2.7c-0.2,0-0.2,0.3-1.8,6c-1,3.8-1.2,4.2-1.2,4.3c0,0.1,0.1,0.1,0.5,0.1H32.5z"/>
	<path d="M46,194.7c0-0.6-0.3-1-1.1-1h-1.5c-0.3,0-0.6-0.1-0.6-0.5c0-0.5,0.5-0.7,1.2-0.8c4-0.5,6.5-0.6,9.5-0.6
		c6.5,0,10.2,2.2,10.2,7c0,3.9-2.4,5.7-6.1,7v0.1c4.5,0.5,7.9,3.7,7.9,8.3c0,4.6-3.5,9-8.5,9c-2.1,0-4-0.2-7.2-0.2
		c-2.9,0-4.8,0.2-6,0.2c-0.8,0-1.1-0.2-1.1-0.5c0-0.4,0.2-0.4,1.3-0.8c1.6-0.5,1.9-0.7,1.9-2V194.7z M50.7,203.4
		c0,1.7,0.5,1.8,1.9,1.8c3.4,0,6.2-1.7,6.2-6.5c0-3.5-2-5.6-5.4-5.6c-2.2,0-2.6,0.7-2.6,2V203.4z M50.7,218.1c0,2.3,1.1,3.6,3.9,3.6
		c2.6,0,5.6-1.9,5.6-7.9c0-4-2.1-7.3-6.9-7.3c-2.2,0-2.6,0.3-2.6,1.4V218.1z"/>
	<path d="M75.5,219c0,1.4,0.4,2.4,1.9,2.7c1.8,0.3,2,0.6,2,0.9c0,0.3-0.1,0.5-0.6,0.5c-1.1,0-2.9-0.2-5.2-0.2c-2.7,0-4,0.2-5.2,0.2
		c-0.5,0-0.7-0.2-0.7-0.6c0-0.3,0.2-0.6,1-0.7c1.6-0.1,2.1-1.1,2.1-2v-23.8c0-1.6-0.3-2.1-1.8-2.2c-1.1-0.1-1.4-0.3-1.4-0.6
		c0-0.5,0.3-0.7,0.9-0.7c1.4,0,2.8,0.2,4.9,0.2c2.6,0,4.3-0.2,7.1-0.2c5.3,0,8.5,3.4,8.5,8c0,4.3-3.5,6.7-7.5,7.2v0.1
		c1.5,0.2,2,0.9,2.8,2.4c4,8,4.5,10.8,5.9,11.8c1,0.6,1.8,0.2,1.8,0.9c0,0.2-0.1,0.4-0.6,0.4c-1.1,0-2.2-0.2-3.4-0.2
		c-1.2,0-1.6,0.2-2.6,0.2c-0.3,0-0.6-0.2-0.9-0.9l-6-13c-0.3-0.6-0.6-1-1.6-1c-1.1,0-1.5,0.2-1.5,1.2V219z M75.5,205.6
		c0,1,0.1,1.2,1.6,1.2c4.4,0,6.7-1.8,6.7-6.6c0-3.5-2.3-6.5-5.3-6.5c-2.4,0-3.1,0.6-3,2.6V205.6z"/>
	<path d="M97,212.1c-0.7,0-0.7,0.3-1.4,3.1c-1,4.1-1.2,4.7-1.2,5.1c0,0.6,0.4,1.1,1.5,1.5c0.9,0.3,2.3,0.1,2.3,0.7
		c0,0.3-0.1,0.6-0.9,0.6c-0.4,0-2.3-0.2-3.5-0.2c-2.3,0-3.2,0.2-3.6,0.2c-0.3,0-0.5-0.1-0.5-0.5c0-0.7,0.6-0.4,1.7-0.9
		c1.1-0.5,1.6-2.8,5.5-15.7c4.3-14.1,3.9-14.3,4.8-14.3c1,0,0.6,0.6,6.6,20c2.4,7.9,2.7,9.7,3.7,10c1.1,0.4,1.7,0.2,1.7,0.8
		c0,0.3-0.1,0.5-1,0.5c-0.8,0-2.3-0.2-4.1-0.2c-2.6,0-4.4,0.2-4.9,0.2c-0.5,0-0.6-0.2-0.6-0.6c0-0.4,0.5-0.4,2.1-0.8
		c0.6-0.1,0.8-0.7,0.8-1.1c0-0.4-0.2-1.1-1.2-4.6c-1-3.6-1-3.9-1.6-3.9H97z M102.7,210.8c0.3,0,0.4,0,0.4-0.1c0-0.3-0.3-1.2-2.1-7.6
		c-0.7-2.5-0.7-2.7-0.9-2.7c-0.2,0-0.2,0.3-1.8,6c-1,3.8-1.2,4.2-1.2,4.3c0,0.1,0.1,0.1,0.5,0.1H102.7z"/>
	<path d="M123.8,210.4c0.6,0,0.8,0,0.8,0.2c0,0.3-0.1,0.9-0.7,1.8c-0.6,1-0.5,1.1-1.1,1.1h-8.3c-0.6,0-0.7-0.1-0.7-0.3
		c0-0.7,0.8-1.8,1.2-2.6c0-0.1,0.5-0.2,1-0.2H123.8z"/>
	<path d="M134.4,222.5c-0.2,0.6-0.2,1.2-0.8,1.2c-0.4,0-0.5-0.2-0.9-1.3l-8.3-26.6c-0.4-1.5-0.6-1.9-1.3-2.1
		c-0.9-0.3-1.2-0.2-1.2-0.7c0-0.4,0.1-0.6,0.8-0.6c0.9,0,1.3,0.2,4.2,0.2c2.1,0,3.2-0.2,3.8-0.2c0.7,0,1,0.2,1,0.6
		c0,0.6-0.3,0.7-1.2,0.8c-1.4,0.1-1.6,0.3-1.6,0.9c0,0.1,0.2,0.8,0.4,1.4l5.2,16.9c0.2,0.6,0.2,0.8,0.4,0.8c0.1,0,0.2-0.2,0.3-0.7
		l4.6-15c0.3-1.1,0.6-2,0.6-2.7c0-0.9-0.4-1.5-1.4-1.6c-1.6-0.1-1.8-0.2-1.8-0.7c0-0.3,0.3-0.6,0.8-0.6c0.8,0,1.5,0.2,3,0.2
		c1.7,0,2.3-0.2,2.8-0.2c0.5,0,0.7,0.2,0.7,0.5c0,0.5-0.4,0.5-1.3,0.8c-0.6,0.2-1.1,1-1.3,1.8L134.4,222.5z"/>
	<path d="M145.8,212.1c-0.7,0-0.7,0.3-1.4,3.1c-1,4.1-1.2,4.7-1.2,5.1c0,0.6,0.4,1.1,1.5,1.5c0.9,0.3,2.3,0.1,2.3,0.7
		c0,0.3-0.1,0.6-0.9,0.6c-0.4,0-2.3-0.2-3.5-0.2c-2.3,0-3.2,0.2-3.6,0.2c-0.3,0-0.5-0.1-0.5-0.5c0-0.7,0.6-0.4,1.7-0.9
		c1.1-0.5,1.6-2.8,5.5-15.7c4.3-14.1,3.9-14.3,4.8-14.3c1,0,0.6,0.6,6.6,20c2.4,7.9,2.7,9.7,3.7,10c1.1,0.4,1.7,0.2,1.7,0.8
		c0,0.3-0.1,0.5-1,0.5c-0.8,0-2.3-0.2-4.1-0.2c-2.6,0-4.4,0.2-4.9,0.2c-0.5,0-0.6-0.2-0.6-0.6c0-0.4,0.5-0.4,2.1-0.8
		c0.6-0.1,0.8-0.7,0.8-1.1c0-0.4-0.2-1.1-1.2-4.6c-1-3.6-1-3.9-1.6-3.9H145.8z M151.5,210.8c0.3,0,0.4,0,0.4-0.1
		c0-0.3-0.3-1.2-2.1-7.6c-0.7-2.5-0.7-2.7-0.9-2.7c-0.2,0-0.2,0.3-1.8,6c-1,3.8-1.2,4.2-1.2,4.3c0,0.1,0.1,0.1,0.5,0.1H151.5z"/>
	<path d="M169.8,219c0,1.8,1,2.8,2.7,2.8c2,0,3.7-1.3,4.9-3.7c1.3-2.9,1.1-3.5,1.8-3.5c0.4,0,0.5,0.1,0.5,1.3v6.2
		c0,0.9-0.2,1.2-0.9,1.2c-1.5,0-3.6-0.2-9.3-0.2c-3.3,0-5.6,0.2-6.7,0.2c-0.6,0-0.8-0.1-0.8-0.7c0-0.4,0.2-0.6,0.8-0.7
		c1.9-0.3,2.4-0.5,2.4-2.6v-23.8c0-1-0.3-1.6-1.3-1.7c-1.4,0-1.8-0.1-1.8-0.7c0-0.5,0.3-0.6,0.9-0.6c0.9,0,1.9,0.2,4.8,0.2
		c3.3,0,4.4-0.2,5.1-0.2c0.7,0,0.9,0.2,0.9,0.6c0,0.6-0.4,0.7-1.7,0.8c-1.6,0.1-2.1,0.6-2.1,1.8V219z"/>
	<path d="M183.9,195.4c0-1.2-0.3-1.6-1.8-1.8c-0.9-0.1-1.4-0.1-1.4-0.7c0-0.5,0.4-0.6,1.4-0.6c0.4,0,1.6,0.2,7.7,0.2
		c5.1,0,7.4-0.2,8.8-0.2c0.9,0,1.1,0.2,1.1,0.9v6.2c0,0.6-0.2,0.9-0.5,0.9c-0.8,0-0.5-0.2-1.6-2.7c-1.3-2.9-2.7-3.9-6.4-3.9
		c-2.3,0-2.6,0.2-2.6,1.3v9.9c0,0.7,0.1,0.9,1.3,0.9c4,0,4.2-0.1,5.1-1.8c0.8-1.6,0.7-2.2,1.4-2.2c0.4,0,0.6,0.2,0.6,0.9
		c0,1-0.2,2.7-0.2,4.2c0,1.8,0.2,3.1,0.2,4.1c0,0.9-0.1,1.4-0.7,1.4c-0.7,0-0.7-1-1.3-2.7c-0.7-2.2-0.9-2.4-4.3-2.4
		c-1.9,0-2.1,0-2.1,0.9v9.3c0,3.5,0.6,4.5,3.9,4.5c3.2,0,4.8-1.4,6-4.8c1-2.6,0.9-2.8,1.4-2.8c0.4,0,0.5,0.1,0.5,1.1v6.9
		c0,0.7-0.2,0.9-1.2,0.9c-1.3,0-3.6-0.2-8.6-0.2c-5.5,0-6.9,0.2-9.2,0.2c-0.9,0-1-0.2-1-0.6c0-0.5,0.1-0.7,0.8-0.8
		c2.1-0.3,2.6-0.8,2.6-2.2V195.4z"/>
	<path d="M219.7,195.8c0-1.3-0.3-1.6-1.6-1.6c-0.6,0-1.1,0.1-1.5,0.1c-0.6,0-0.7-0.1-0.7-0.6c0-1,7.1-2,11-2c9,0,14.7,6,14.7,15.8
		c0,6.9-3.8,15.6-13,15.6c-2.1,0-4-0.2-5.8-0.2c-3.9,0-5.3,0.2-6.3,0.2c-0.3,0-0.5-0.3-0.5-0.6c0-0.5,0.2-0.6,1.7-0.7
		c1.6,0,2.1-0.9,2.1-3.5V195.8z M224.4,217.9c0,2.8,1.3,3.9,3.8,3.9c5,0,8-6,8-13.6c0-8.9-3.5-15.1-8.8-15.1c-1.8,0-3,0.7-3,2.9
		V217.9z"/>
	<path d="M247.3,195.8c0-1.5-0.3-1.9-1.6-2.1c-1.8-0.3-2.2-0.2-2.2-0.8c0-0.4,0.3-0.5,0.9-0.5c1.1,0,2.1,0.2,5.7,0.2
		c1.7,0,3.8-0.2,4.9-0.2c0.5,0,0.8,0.1,0.8,0.4c0,0.7-0.4,0.6-2.5,0.9c-0.6,0.1-1.1,0.7-1.1,1.8v24.1c0,1.6,0.2,1.6,2.3,2.1
		c1.1,0.3,1.5,0.2,1.5,0.8c0,0.3-0.1,0.6-0.9,0.6c-0.8,0-2.1-0.2-5-0.2c-4,0-4.9,0.2-5.7,0.2c-0.5,0-0.7-0.2-0.7-0.6
		c0-0.4,0.5-0.6,1.3-0.7c2.1-0.2,2.5-0.7,2.5-2.7V195.8z"/>
	<path d="M273.4,211.1c0-1.3-0.3-1.6-2.2-1.8c-0.5,0-0.8-0.1-0.8-0.6c0-0.4,0.1-0.7,0.8-0.7c0.5,0,1.7,0.2,4.5,0.2
		c1.6,0,3.5-0.2,3.9-0.2c0.5,0,0.8,0.2,0.8,0.6c0,0.5-0.4,0.7-0.9,0.8c-0.8,0.1-1.2,0.3-1.2,1.1v8.6c0,2.1-3.6,4.6-8.4,4.6
		c-8.1,0-12.1-8.7-12.1-15.9c0-9.9,6-16.1,13-16.1c2.7,0,6,0.7,6.4,1.4c0.2,0.3,0.3,0.8,0.3,1.2v5.1c0,0.6,0,1.2-0.7,1.2
		c-0.6,0-1.1-1.9-2.1-3.8c-0.8-1.4-1.9-3.8-4-3.8c-6.2,0-7.6,6.7-7.6,14.7c0,10.4,3.7,14.7,7.3,14.7c1.9,0,3.1-0.9,3.1-2.7V211.1z"
		/>
	<path d="M297.7,211.1c0-1.3-0.3-1.6-2.2-1.8c-0.5,0-0.8-0.1-0.8-0.6c0-0.4,0.1-0.7,0.8-0.7c0.5,0,1.7,0.2,4.5,0.2
		c1.6,0,3.5-0.2,3.9-0.2c0.5,0,0.8,0.2,0.8,0.6c0,0.5-0.4,0.7-0.9,0.8c-0.8,0.1-1.2,0.3-1.2,1.1v8.6c0,2.1-3.6,4.6-8.4,4.6
		c-8.1,0-12.1-8.7-12.1-15.9c0-9.9,6-16.1,13-16.1c2.7,0,6,0.7,6.4,1.4c0.2,0.3,0.3,0.8,0.3,1.2v5.1c0,0.6,0,1.2-0.7,1.2
		c-0.6,0-1.1-1.9-2.1-3.8c-0.8-1.4-1.9-3.8-4-3.8c-6.2,0-7.6,6.7-7.6,14.7c0,10.4,3.7,14.7,7.3,14.7c1.9,0,3.1-0.9,3.1-2.7V211.1z"
		/>
	<path d="M308.8,195.4c0-1.2-0.3-1.6-1.8-1.8c-0.9-0.1-1.4-0.1-1.4-0.7c0-0.5,0.4-0.6,1.4-0.6c0.4,0,1.6,0.2,7.7,0.2
		c5.1,0,7.4-0.2,8.8-0.2c0.9,0,1.1,0.2,1.1,0.9v6.2c0,0.6-0.2,0.9-0.5,0.9c-0.8,0-0.5-0.2-1.6-2.7c-1.3-2.9-2.7-3.9-6.4-3.9
		c-2.3,0-2.6,0.2-2.6,1.3v9.9c0,0.7,0.1,0.9,1.3,0.9c4,0,4.2-0.1,5.1-1.8c0.8-1.6,0.7-2.2,1.4-2.2c0.4,0,0.6,0.2,0.6,0.9
		c0,1-0.2,2.7-0.2,4.2c0,1.8,0.2,3.1,0.2,4.1c0,0.9-0.1,1.4-0.7,1.4c-0.7,0-0.7-1-1.3-2.7c-0.7-2.2-0.9-2.4-4.3-2.4
		c-1.9,0-2.1,0-2.1,0.9v9.3c0,3.5,0.6,4.5,3.9,4.5c3.2,0,4.8-1.4,6-4.8c1-2.6,0.9-2.8,1.4-2.8c0.4,0,0.5,0.1,0.5,1.1v6.9
		c0,0.7-0.2,0.9-1.2,0.9c-1.3,0-3.6-0.2-8.6-0.2c-5.5,0-6.9,0.2-9.2,0.2c-0.9,0-1-0.2-1-0.6c0-0.5,0.1-0.7,0.8-0.8
		c2.1-0.3,2.6-0.8,2.6-2.2V195.4z"/>
	<path d="M335.6,219c0,1.4,0.4,2.4,1.9,2.7c1.8,0.3,2,0.6,2,0.9c0,0.3-0.1,0.5-0.6,0.5c-1.1,0-2.9-0.2-5.2-0.2c-2.7,0-4,0.2-5.2,0.2
		c-0.5,0-0.7-0.2-0.7-0.6c0-0.3,0.2-0.6,1-0.7c1.6-0.1,2.1-1.1,2.1-2v-23.8c0-1.6-0.3-2.1-1.7-2.2c-1.1-0.1-1.4-0.3-1.4-0.6
		c0-0.5,0.3-0.7,0.9-0.7c1.4,0,2.8,0.2,4.9,0.2c2.6,0,4.3-0.2,7.1-0.2c5.3,0,8.5,3.4,8.5,8c0,4.3-3.5,6.7-7.5,7.2v0.1
		c1.5,0.2,2,0.9,2.8,2.4c4,8,4.5,10.8,5.9,11.8c1,0.6,1.7,0.2,1.7,0.9c0,0.2-0.1,0.4-0.6,0.4c-1.1,0-2.2-0.2-3.4-0.2
		c-1.2,0-1.6,0.2-2.6,0.2c-0.3,0-0.6-0.2-0.9-0.9l-6-13c-0.3-0.6-0.6-1-1.6-1c-1.1,0-1.5,0.2-1.5,1.2V219z M335.6,205.6
		c0,1,0.1,1.2,1.6,1.2c4.4,0,6.7-1.8,6.7-6.6c0-3.5-2.3-6.5-5.3-6.5c-2.4,0-3.1,0.6-3,2.6V205.6z"/>
	<path d="M367.5,199.5c0,0.7-0.2,1-0.8,1c-0.9,0-0.8-1.3-2.2-4.6c-0.9-2.1-1.8-3.2-4-3.2c-2.5,0-4.2,2-4.2,5c0,2.9,1.1,3.5,5.9,7
		c3.7,2.7,6.9,5.2,6.9,9.6c0,4.7-3.5,9.3-10.4,9.3c-2.4,0-6.6-1-6.6-2.8c0-7.3,0.3-7.6,1.1-7.6c1.1,0,0.5,1.1,1.9,4.6
		c1.2,3,2.8,4.5,5.3,4.5c2.9,0,5.1-2.2,5.1-5.4c0-8.6-13-7.5-13-17.4c0-3.8,3.3-7.8,8.5-7.8c3.5,0,6,0.7,6.3,1.2
		c0.2,0.3,0.2,0.8,0.2,1.4V199.5z"/>
</g>

</svg>
