<svg id="Layer_1" data-name="Layer 1" xmlns="http://www.w3.org/2000/svg" viewBox="0 0 400 400"><defs><style>.cls-1{fill:#fbb040;}</style></defs><title>sun</title><circle class="cls-1" cx="202.74" cy="199.57" r="133.78"/><polygon class="cls-1" points="157.47 340.02 100 373.2 100 306.84 157.47 340.02"/><polygon class="cls-1" points="300 93.16 300 26.8 242.53 59.98 300 93.16"/><polygon class="cls-1" points="93.16 300 26.8 300 59.98 242.53 93.16 300"/><polygon class="cls-1" points="340.02 157.47 373.2 100 306.84 100 340.02 157.47"/><polygon class="cls-1" points="57.47 233.18 0 200 57.47 166.82 57.47 233.18"/><polygon class="cls-1" points="342.53 233.18 400 200 342.53 166.82 342.53 233.18"/><polygon class="cls-1" points="59.98 157.47 26.8 100 93.16 100 59.98 157.47"/><polygon class="cls-1" points="306.84 300 373.2 300 340.02 242.53 306.84 300"/><polygon class="cls-1" points="100 93.16 100 26.8 157.47 59.98 100 93.16"/><polygon class="cls-1" points="242.53 340.02 300 373.2 300 306.84 242.53 340.02"/><polygon class="cls-1" points="166.82 57.47 200 0 233.18 57.47 166.82 57.47"/><polygon class="cls-1" points="166.82 342.53 200 400 233.18 342.53 166.82 342.53"/></svg>